<svg xmlns="http://www.w3.org/2000/svg" height="1024" preserveAspectRatio="none" style="display: block;" version="1.1" viewBox="0 0 2048 2048" width="1024">
<path d="M 0 0 L 2048 0 L 2048 2048 L 0 2048 L 0 0 z" fill="rgb(255,255,255)" transform="translate(0,0)"></path>
<path d="M 1812.33 927.193 C 1813.77 927.096 1815.21 927.011 1816.65 926.938 C 1839.79 925.775 1859.66 935.4 1876.46 950.823 C 1923.76 994.272 1927.55 1078.41 1883 1125.22 C 1841.47 1168.84 1773.8 1168.91 1751.62 1106.86 C 1749.68 1101.44 1746 1086.13 1742.34 1082.6 C 1738.61 1083.86 1734.71 1091.85 1735.56 1094.82 C 1744.74 1127.07 1753.44 1144.76 1750.56 1179.92 L 1750.45 1181.24 C 1748.84 1207.62 1738.13 1229.8 1712.01 1238.6 C 1707.19 1240.23 1701.16 1242.66 1696.27 1240.47 C 1694.18 1235.45 1695.27 1162.43 1695.32 1152.08 C 1695.48 1115.04 1694.42 1075.92 1695.06 1038.76 C 1695.68 1002.66 1693.67 966.823 1693.1 931.016 C 1713.29 930.716 1733.21 928.911 1754.08 928.77 C 1749.55 938.683 1728.71 981.336 1742.26 990.335 C 1753.43 985.965 1758.83 938.231 1812.33 927.193 z" fill="rgb(217,123,63)" transform="translate(0,0)"></path>
<path d="M 1796.07 965.346 C 1872.3 961.62 1903.63 1088.61 1814.77 1110.68 C 1781.14 1115.97 1744.7 1093.61 1740.71 1058.33 C 1736.1 1017.62 1749.45 971.596 1796.07 965.346 z" fill="rgb(255,255,255)" transform="translate(0,0)"></path>
<path d="M 435.894 929.923 C 498.518 923.08 554.806 968.37 561.525 1031.01 C 568.244 1093.65 522.844 1149.84 460.193 1156.44 C 397.715 1163.02 341.708 1117.77 335.007 1055.31 C 328.306 992.843 373.443 936.746 435.894 929.923 z" fill="rgb(217,123,63)" transform="translate(0,0)"></path>
<path d="M 442.662 966.266 C 477.85 962.266 503.584 987.71 510.71 1020.23 C 515.603 1043.6 511.11 1067.95 498.203 1088.03 C 487.543 1104.63 475.827 1112 456.805 1116.18 C 418.725 1120.1 391.05 1087.4 385.321 1052.59 C 381.832 1031.36 386.933 1009.61 399.499 992.144 C 410.665 976.801 424.246 969.314 442.662 966.266 z" fill="rgb(255,255,255)" transform="translate(0,0)"></path>
<path d="M 1340.54 833.371 C 1365.05 829.814 1400.65 836.919 1421.63 850.002 C 1458.86 873.216 1474.32 905.743 1484.82 946.327 C 1472.16 947.438 1449.75 946.222 1434.93 946.715 C 1423.99 906.956 1394.18 877.637 1351.76 876.249 C 1328.69 875.428 1306.28 883.973 1289.62 899.94 C 1239.82 947.055 1240.76 1037.47 1289.37 1085.41 C 1324.98 1120.54 1373.42 1121.31 1408.91 1085.75 C 1421.6 1072.3 1428.24 1058.11 1434.47 1041.01 C 1451.63 1041.94 1468.55 1041.93 1485.72 1042.01 C 1468.64 1101.07 1423.69 1148.46 1361.28 1158.07 C 1327.23 1163.32 1288.41 1147.17 1261.86 1126.68 C 1229.98 1102.38 1209.31 1066.19 1204.56 1026.38 C 1198.31 976.888 1208.96 929.636 1240.03 890.193 C 1264.53 858.508 1300.76 838.027 1340.54 833.371 z" fill="rgb(217,123,63)" transform="translate(0,0)"></path>
<path d="M 861.33 927.374 C 908.758 922.96 948.132 950.498 964.716 994.793 C 971.934 1014.07 973.112 1032.08 972.989 1052.43 C 956.16 1053.42 931.4 1052.74 913.923 1052.78 L 808.528 1053.48 C 814.268 1078.06 823.654 1104.19 848.441 1114.87 C 883.325 1129.89 907.072 1108.27 920.156 1078.84 C 928.302 1079.03 936.764 1078.93 944.938 1078.96 L 971.809 1079.02 C 959.312 1120.78 925.161 1152.65 881.478 1158.62 C 854.528 1162.33 827.229 1154.95 805.809 1138.18 C 757.057 1100.64 747.042 1019.16 784.667 970.031 C 804.215 944.508 829.419 931.018 861.33 927.374 z" fill="rgb(217,123,63)" transform="translate(0,0)"></path>
<path d="M 864.532 964.312 C 900.083 960.391 917.114 989.321 925.694 1018.46 C 908.755 1018.03 891.238 1018.26 874.25 1018.27 C 852.518 1018.41 830.785 1018.44 809.053 1018.34 C 817.397 989.08 833.146 968.713 864.532 964.312 z" fill="rgb(255,255,255)" transform="translate(0,0)"></path>
<path d="M 1577.59 927.368 C 1593.07 925.047 1613.17 928.324 1627.73 934.253 C 1680 955.541 1669.41 1017.48 1670.5 1062.83 C 1670.99 1083.16 1669.43 1104.7 1672.03 1125.02 C 1673.44 1136.1 1678.62 1147.39 1682.99 1157.68 C 1666.49 1158.27 1649.98 1158.13 1633.49 1157.27 C 1632.21 1137.87 1628.53 1118.14 1624.53 1099.14 C 1621.68 1113.85 1620.74 1124.85 1610.1 1136.55 C 1582.75 1166.6 1533.19 1169.43 1502.98 1142.17 C 1495.72 1133.96 1490.45 1124.09 1488.5 1113.35 C 1485.42 1096.35 1486.51 1078.16 1496.7 1063.68 C 1517.25 1034.45 1549.52 1029.95 1581.91 1024.44 C 1595.66 1022.14 1609.37 1019.66 1623.06 1017.01 C 1623.24 1004.62 1623.05 993.787 1617.36 982.727 C 1600.94 950.767 1556.92 959.813 1544.25 989.939 C 1541.87 995.61 1540.48 1000.92 1538.85 1006.68 C 1526.04 1006.03 1511.36 1006.17 1498.4 1006.02 C 1501.05 960.105 1533.69 932.478 1577.59 927.368 z" fill="rgb(217,123,63)" transform="translate(0,0)"></path>
<path d="M 1617.75 1051.46 C 1618.2 1051.4 1622.81 1050.66 1622.96 1052.06 C 1623.97 1060.93 1624.73 1073.71 1623.26 1082.51 C 1617.68 1115.97 1584.02 1136.65 1552.95 1119.25 C 1539.09 1108.1 1534.46 1089.15 1544.45 1073.78 C 1558.11 1052.76 1595.19 1053.41 1617.75 1051.46 z" fill="rgb(255,255,255)" transform="translate(0,0)"></path>
<path d="M 626.799 834.108 L 628.095 834.307 C 630.003 837.749 629.184 1009.47 628.987 1030.58 C 652.887 1006.94 677.342 974.425 701.077 949.79 C 728.739 921.078 760.236 929.977 798.01 929.948 C 794.478 933.146 790.184 936.349 786.333 939.182 C 754.87 962.332 727.724 990.061 699.914 1017.48 C 720.341 1054.09 752.65 1117.41 783.174 1143.08 C 789.299 1147.65 796.102 1151.26 802.769 1155.01 C 785.785 1158.36 740.352 1166.74 727.864 1152.71 C 717.319 1140.86 706.723 1120.07 698.483 1105.7 C 687.82 1086.99 676.82 1068.49 665.488 1050.19 C 653.843 1062.13 642.03 1073.9 630.051 1085.51 C 630.183 1111.08 631.256 1136.44 631.006 1162.01 L 578.779 1161.68 C 578.969 1146.45 580.225 1130.55 580.632 1115.12 C 581.66 1074.41 582.122 1033.69 582.016 992.96 C 581.918 971.715 581.491 950.472 580.737 929.24 C 579.159 882.871 573.498 850.872 626.799 834.108 z" fill="rgb(217,123,63)" transform="translate(0,0)"></path>
<path d="M 1048.82 927.42 C 1056.56 927.021 1066 927.179 1073.88 927.097 C 1053.13 937.18 1037.25 950.358 1033.56 974.996 C 1032.67 980.917 1031.91 988.517 1037.61 992.129 L 1039.33 991.113 C 1044.65 974.052 1048.75 963.263 1060.37 949.371 C 1085.22 919.647 1131.91 921.12 1159.5 946.951 C 1170.37 957.259 1178.06 970.466 1181.66 985.01 C 1186.83 1005.44 1184.85 1055.58 1184.93 1079.29 C 1185.28 1105.84 1185.93 1132.38 1186.88 1158.91 C 1169.49 1158.58 1151.39 1158.81 1133.95 1158.78 C 1134.79 1124.34 1136.32 1091.81 1136.69 1056.87 C 1136.71 1054.32 1136.7 1051.78 1136.65 1049.24 C 1135.95 1015.22 1133.02 964.686 1085.36 966.758 C 1055.68 968.049 1042.59 989.503 1037.78 1016.3 C 1029.48 1062.62 1034.68 1111.67 1038.21 1158.44 C 1021.01 1158.67 1003.82 1158.8 986.62 1158.82 C 987.897 1118.58 988.377 1078.31 988.062 1038.05 C 988.03 1024.28 987.992 1010.42 987.956 996.734 C 987.923 977.833 986.202 958.753 1000.28 943.699 C 1012.99 930.109 1031.53 928.586 1048.82 927.42 z" fill="rgb(217,123,63)" transform="translate(0,0)"></path>
<path d="M 268.123 877.22 C 281.141 876.376 284.516 876.48 295.965 882.643 C 296.222 901.342 293.288 925.916 293.007 945.748 C 292.091 1016.5 292.626 1087.27 294.61 1158.01 L 273.372 1158.36 L 242.786 1158.32 L 242.549 888.131 C 251.204 881.638 257.825 879.277 268.123 877.22 z" fill="rgb(217,123,63)" transform="translate(0,0)"></path>
<path d="M 133.185 833.581 C 160.069 834.255 189.199 833.556 216.365 833.641 L 407.163 833.734 C 400.95 853.407 393.737 865.345 375.776 876.118 C 337.397 892.055 319.181 871.077 283.782 865.253 C 253.937 859.931 234.559 884.075 208.09 889.17 C 168.863 896.722 139.391 871.368 133.185 833.581 z" fill="rgb(217,123,63)" transform="translate(0,0)"></path>
<metadata><recraft-signature>{"signed_by": "recraft", "signature_b64": "b76o32stvfHCMcig6gyAo/2vAGEUNeQXk6stOaS9E7GUmvagEJgySCX2GMJpsp00ZC3cp7c94YbKqWb/4i+7DA==", "signing_algo": "Ed25519", "generation_timestamp": 1772101150, "identifier": "257c54ab-4bf5-434c-8f37-ca9e2a7dd1cf"}</recraft-signature></metadata></svg>