<svg xmlns="http://www.w3.org/2000/svg" height="1024" preserveAspectRatio="none" style="display: block;" version="1.1" viewBox="0 0 2048 2048" width="1024">
<path d="M 0 0 L 2048 0 L 2048 2048 L 0 2048 L 0 0 z" fill="rgb(255,255,255)" transform="translate(0,0)"></path>
<path d="M 1784.39 895.619 L 1786.56 896.437 C 1789.8 905.562 1787.66 964.391 1788.19 978.752 C 1805.07 898.434 1890.56 865.639 1948.42 933.33 C 2013.45 1009.41 1966.23 1156.28 1857.75 1144.85 C 1852.12 1144.06 1846.6 1142.64 1841.28 1140.63 C 1816.02 1131.1 1798.05 1110.04 1787.21 1085.91 L 1787.76 1257.85 C 1763.94 1246.6 1756.9 1232.51 1755.75 1206.81 C 1754.98 1189.44 1755.11 1172.28 1755.09 1154.91 L 1755.02 1072.03 L 1754.8 986.644 C 1754.75 970.807 1754.65 954.946 1754.9 939.118 C 1755.26 916.05 1763.36 905.078 1784.39 895.619 z" fill="rgb(217,123,63)" transform="translate(0,0)"></path>
<path d="M 1867.96 902.411 C 1918.71 900.34 1942.98 961.736 1943.62 1003.86 C 1944.22 1042.75 1937.64 1090.56 1910.4 1120.8 C 1897.24 1135.42 1880.71 1140.58 1861.65 1141.09 C 1847.14 1139.91 1833.36 1134.19 1822.28 1124.74 C 1811.32 1115.48 1801.96 1102.33 1795.79 1089.43 C 1768.61 1032.67 1792.74 908.431 1867.96 902.411 z" fill="rgb(255,255,255)" transform="translate(0,0)"></path>
<path d="M 384.364 901.289 C 451.28 892.878 512.302 940.418 520.514 1007.36 C 528.725 1074.3 481.004 1135.18 414.039 1143.19 C 347.356 1151.17 286.787 1103.69 278.61 1037.03 C 270.432 970.375 317.729 909.665 384.364 901.289 z" fill="rgb(217,123,63)" transform="translate(0,0)"></path>
<path d="M 390.307 900.183 C 504.014 889.516 516.737 1124.74 408.709 1143.76 C 294.706 1155.64 282.371 921.751 390.307 900.183 z" fill="rgb(255,255,255)" transform="translate(0,0)"></path>
<path d="M 1684.4 1054.86 C 1677.94 1086.03 1664.23 1118.02 1636.71 1136.17 C 1619.3 1147.42 1598.1 1151.21 1577.87 1146.67 C 1559.68 1142.75 1545.09 1130.47 1535.31 1114.94 C 1526.02 1100.21 1522.46 1082.54 1526.65 1065.5 C 1530.2 1051.08 1541.33 1036.89 1554.25 1029.48 C 1588.67 1009.74 1681.12 988.459 1692 946.283 C 1694.22 937.664 1692.62 928.868 1688.05 921.293 C 1681.48 910.421 1670.83 903.953 1658.61 901.332 C 1642.49 897.877 1626.47 902.379 1613.08 911.467 C 1597.61 921.969 1585.32 937.483 1574.51 952.532 C 1569.88 958.981 1565.09 966.969 1558.94 972.065 C 1556.04 974.475 1552.11 975.948 1548.31 975.225 C 1545.28 974.65 1542.92 972.756 1541.45 970.114 C 1539.42 966.486 1539.24 961.292 1540.64 957.418 C 1548.89 934.571 1574.96 910.842 1596.88 901.388 C 1619.77 891.513 1646.19 892 1669.25 901.225 C 1688.99 909.123 1705.17 923.995 1713.41 943.727 C 1730.51 984.687 1709.76 1114.93 1727.99 1139.73 C 1729.47 1141.74 1731.41 1142.52 1733.53 1143.68 C 1735.65 1144.84 1736.64 1145.35 1737.86 1147.47 L 1737.36 1148.58 C 1731.06 1150.12 1725.83 1149.23 1719.55 1149.27 C 1687.02 1149.52 1687.59 1117.95 1686.85 1094.47 C 1685.05 1083.46 1687.85 1060.84 1684.4 1054.86 z" fill="rgb(217,123,63)" transform="translate(0,0)"></path>
<path d="M 1684.4 1054.86 C 1684.55 1049.86 1685.49 1047.24 1687 1042.64 C 1686.99 1058.88 1687.57 1078.55 1686.85 1094.47 C 1685.05 1083.46 1687.85 1060.84 1684.4 1054.86 z" fill="rgb(251,185,165)" transform="translate(0,0)"></path>
<path d="M 1686.64 966.91 L 1687.66 968.472 C 1688.96 1011.39 1687.02 1055.07 1665.87 1093.53 C 1647.07 1127.74 1612.26 1160.74 1575.23 1125.67 L 1574.58 1124.88 C 1559.42 1106.48 1557.41 1088.61 1559.13 1065.69 C 1562.04 1026.83 1593.1 1020.68 1621.95 1005.23 C 1643.81 993.523 1667.17 983.035 1686.64 966.91 z" fill="rgb(255,255,255)" transform="translate(0,0)"></path>
<path d="M 858.482 897.353 C 861.09 897.128 863.705 896.996 866.322 896.957 C 897.656 896.418 922.591 905.381 945.54 927.08 C 965.101 945.576 988.46 979.411 949.97 992.99 C 941.408 996.011 932.767 998.507 924.032 1001.12 L 857.813 1021.21 C 827.089 1030.44 809.368 1032.72 786.025 1055.66 C 790.536 1076.53 803.782 1100.18 819.264 1114.88 C 859.733 1153.31 904.244 1147.98 941.526 1109.11 C 949.444 1100.97 955.51 1091.33 961.117 1081.52 C 962.859 1078.47 966.976 1070.14 969.544 1068.64 C 970.385 1075.17 954.839 1097.48 950.921 1103.42 C 917.497 1154.17 845.244 1162.52 796.784 1125.68 C 770.196 1105.2 753.011 1074.85 749.132 1041.51 C 740.1 969.696 785.41 905.912 858.482 897.353 z" fill="rgb(217,123,63)" transform="translate(0,0)"></path>
<path d="M 860.145 901.2 C 872.694 899.946 880.534 900.582 892.866 905.195 C 921.431 914.298 957.734 971.758 922.045 991.88 C 899.266 1004.72 860.776 1015.96 835.5 1024.54 C 812.106 1031.91 803.032 1034.51 784.456 1049.85 C 771.735 991.034 796.379 917.038 860.145 901.2 z" fill="rgb(255,255,255)" transform="translate(0,0)"></path>
<path d="M 574.937 1152.82 C 550.079 1143.2 543.374 1128.51 543.473 1102.4 C 543.807 1014.63 543.305 926.864 543.19 839.095 C 543.173 819.766 549.558 803.068 569.265 796.052 C 571.279 795.344 573.308 794.679 575.351 794.058 C 574.936 845.14 574.837 896.225 575.054 947.308 C 575.066 971.974 573.913 1009.9 575.292 1033.79 L 576.472 1034 L 579.605 1030.05 C 580.127 1026.91 583.274 1022.54 585.155 1019.94 C 594.945 1006.35 608.808 996.73 621.75 986.422 C 655.69 959.393 689.626 932.347 723.765 905.571 C 725.81 903.968 727.743 902.784 730.339 902.377 L 731.197 903.655 C 726.757 908.739 694.684 933.373 688.226 938.388 C 663.039 957.948 638.373 979.011 613.054 998.203 L 612.383 1000.06 C 627.627 996.169 642.45 994.194 656.627 1003.04 C 669.679 1011.18 706.639 1080.63 716.585 1098.62 C 722.883 1110.01 731.458 1127.92 740.623 1136.59 C 745.591 1141.29 750.749 1143.08 757.451 1143.65 L 758.679 1144.85 C 755.061 1148.82 743.744 1147.11 738.168 1146.85 C 725.593 1146.27 715.206 1144.15 705.471 1135.63 C 687.99 1120.33 635.078 1006.97 622.551 1000.28 C 619.265 1000.88 618.694 1000.91 615.494 1002.18 L 611.947 1004.14 C 570.953 1033.04 574.774 1070.77 574.914 1115.93 C 574.952 1128.13 574.924 1140.61 574.937 1152.82 z" fill="rgb(217,123,63)" transform="translate(0,0)"></path>
<path d="M 999.182 896.148 C 1041.97 902.073 1031.46 964.854 1031.87 997.223 C 1042.62 954.976 1074.14 898.775 1123.9 897.932 C 1142.18 897.661 1159.82 904.743 1172.83 917.589 C 1203.72 948.323 1197.14 996.682 1196.99 1036.77 L 1197.11 1149.04 L 1164.84 1148.98 L 1164.68 1038.25 C 1164.81 1003.02 1170.46 949.902 1146.49 923.576 C 1138.07 914.267 1126.11 908.957 1113.56 908.958 C 1062.61 908.513 1040.12 974.743 1033.55 1015.27 C 1030.38 1034.84 1031.07 1058.05 1031.07 1078.07 L 1031.07 1149 L 999.236 1148.83 C 998.33 1084.61 999.738 1020.02 998.969 955.754 C 998.733 936.05 998.645 915.806 999.182 896.148 z" fill="rgb(217,123,63)" transform="translate(0,0)"></path>
<path d="M 77.8587 794.888 L 330.996 794.859 C 331.12 808.533 330.974 822.393 330.945 836.084 C 318.728 833.421 301.253 826.762 289.314 822.719 C 266.26 814.912 243.289 806.226 219.994 799.119 C 209.605 839.669 212.939 886.137 212.969 928.646 L 212.915 1066.5 L 212.971 1151.14 C 175.498 1133.95 179.025 1104.56 178.949 1069.92 L 178.844 1007.9 L 178.805 907.162 C 178.837 895.27 179.074 882.277 178.932 870.521 C 178.486 833.541 182.28 815.443 215.12 796.081 C 178.14 802.452 114.241 823.585 77.0911 835.043 C 77.0978 821.654 77.3537 808.267 77.8587 794.888 z" fill="rgb(217,123,63)" transform="translate(0,0)"></path>
<path d="M 1379.66 801.434 C 1426.35 799.298 1464.62 824.685 1491.67 860.976 C 1495.94 866.82 1517.93 895.144 1503.28 900.499 C 1483.4 907.766 1466.03 872.605 1459.4 862.198 C 1447 842.723 1424.41 815.213 1402.48 808.609 C 1337.04 788.899 1280.14 860.568 1263.25 915.663 C 1237.16 992.655 1262.16 1085 1332.41 1129.1 C 1358.81 1145.66 1382.96 1151.22 1411.96 1135.82 C 1443.63 1117.71 1464.27 1085.97 1485.25 1057.5 C 1490.52 1050.35 1501.44 1041.31 1510.8 1046.23 C 1518.3 1055.04 1507.88 1068.45 1502.48 1076.14 C 1478.05 1110.96 1449.19 1138.71 1406.16 1146.45 C 1309.17 1163.91 1224.11 1077.24 1219.12 984 C 1216.31 937.813 1232.29 892.45 1263.43 858.218 C 1295.99 822.501 1331.46 803.825 1379.66 801.434 z" fill="rgb(217,123,63)" transform="translate(0,0)"></path>
<metadata><recraft-signature>{"signed_by": "recraft", "signature_b64": "2EvgpWg1rcdeay5gI9OzmmHjlD9D6n+GFmtkiuVC7zNV6gZfS6+uq5pKFSh4JH50BPOUNgqqj+vL9UTG2yBNDg==", "signing_algo": "Ed25519", "generation_timestamp": 1772101150, "identifier": "f62979c4-cb8f-47d3-9225-dc1b5ae2dcd0"}</recraft-signature></metadata></svg>