<svg xmlns="http://www.w3.org/2000/svg" height="1024" preserveAspectRatio="none" style="display: block;" version="1.1" viewBox="0 0 2048 2048" width="1024">
<path d="M 0 0 L 2048 0 L 2048 2048 L 0 2048 L 0 0 z" fill="rgb(255,255,255)" transform="translate(0,0)"></path>
<path d="M 1746.15 927.218 C 1780.62 923.85 1810.41 936.558 1824.26 970.001 C 1861 1058.71 1787.96 1151.08 1691.75 1113.67 C 1691.35 1150.53 1691.22 1187.39 1691.35 1224.25 C 1691.46 1227.55 1691.4 1227.76 1690.78 1231.02 C 1687.36 1232.99 1653.44 1231.92 1646.77 1231.84 L 1646.96 1062.31 C 1647.05 1023.19 1649.88 969.644 1642.23 933.423 C 1660.56 932.029 1676.94 930.971 1695.34 930.509 C 1695.24 943.374 1694.26 956.217 1692.41 968.948 C 1708.58 946.012 1718.59 934.029 1746.15 927.218 z" fill="rgb(217,123,63)" transform="translate(0,0)"></path>
<path d="M 1726.95 947.061 C 1755.99 946 1778.21 979.088 1784.16 1004.25 C 1791.51 1035.33 1793.11 1105.33 1752.84 1115.67 C 1742.38 1116.44 1733.33 1113.63 1724.64 1109.2 C 1692.24 1091.93 1689.91 1068.56 1691.06 1035.32 C 1692.21 1001.87 1685.32 959.458 1726.95 947.061 z" fill="rgb(255,255,255)" transform="translate(0,0)"></path>
<path d="M 499.256 928.696 C 552.438 927.789 596.357 970.027 597.524 1023.2 C 598.691 1076.38 556.669 1120.51 503.498 1121.93 C 449.958 1123.37 405.46 1080.99 404.284 1027.45 C 403.109 973.899 445.705 929.609 499.256 928.696 z" fill="rgb(217,123,63)" transform="translate(0,0)"></path>
<path d="M 481.5 935.112 C 553.14 932.113 588.098 1091.57 519.665 1114.87 C 446.875 1118.75 415.424 958.091 481.5 935.112 z" fill="rgb(255,255,255)" transform="translate(0,0)"></path>
<path d="M 1464.58 989 C 1470.99 967.02 1478.71 950.02 1500.49 937.858 C 1531.16 920.725 1593.67 921.1 1611.46 957.66 C 1621.89 979.086 1619.02 1007.23 1619.47 1030.73 C 1620.07 1061.52 1617 1088.34 1624.21 1118.89 L 1569.96 1119.02 C 1570 1108.08 1569.69 1094.43 1570.18 1083.7 C 1569.97 1080.18 1570.68 1080.74 1569.08 1078.76 L 1567.29 1081 C 1565.08 1088.94 1557.17 1097.85 1551.33 1103.94 C 1530.78 1125.34 1493.42 1131.27 1471.44 1108.66 C 1462.88 1099.85 1459.36 1085.53 1460.15 1073.18 C 1462.41 1037.92 1494.11 1028.41 1521.36 1017.13 C 1537.12 1010.38 1547.76 1005.07 1560.57 993.998 L 1567.48 984.414 C 1572.05 971.461 1571.91 957.954 1566.28 945.395 C 1559.67 930.639 1542.63 927.269 1529.46 935.407 C 1514.92 944.397 1506.03 960.826 1502.22 977.026 C 1501.29 981.007 1500.55 985.029 1499.99 989.078 L 1464.58 989 z" fill="rgb(217,123,63)" transform="translate(0,0)"></path>
<path d="M 1569.72 985.122 L 1570.66 984.927 C 1570.86 989.28 1570.61 993.693 1570.38 998.06 C 1569.15 1021.24 1571.73 1045.09 1569.07 1068.11 C 1568.11 1073.64 1565.34 1080.86 1561.37 1084.83 C 1540.59 1105.6 1501.38 1092.21 1504.48 1060.25 C 1507.4 1030.15 1541.74 1015.76 1561.47 996.295 C 1564.69 992.999 1567.13 988.97 1569.72 985.122 z" fill="rgb(255,255,255)" transform="translate(0,0)"></path>
<path d="M 212.454 832.446 C 270.122 833.277 327.954 832.422 385.636 832.773 C 403.337 832.881 421.235 832.937 438.915 832.211 C 440.143 854.997 440.831 877.809 440.978 900.628 C 419.878 865.153 392.497 846.745 352.906 836.449 L 352.479 1028.78 C 352.271 1058.02 351.298 1089.32 353.259 1118.36 C 335.922 1119.07 317.418 1118.69 299.979 1118.61 C 300.583 1024.77 300.443 930.921 299.559 837.08 C 261.134 846.08 232.478 866.801 211.58 900.082 C 211.544 877.931 211.515 854.52 212.454 832.446 z" fill="rgb(217,123,63)" transform="translate(0,0)"></path>
<path d="M 1331.61 831.379 C 1382.21 825.819 1420.87 845.696 1452.15 884.085 L 1407.91 906.93 C 1397.61 891.759 1385.08 878.23 1370.74 866.803 C 1292.6 805.563 1221.59 873.323 1233.99 961.561 C 1239.57 1001.87 1261.29 1038.19 1294.16 1062.17 C 1321.5 1082.37 1345.61 1085.09 1378.11 1080.37 C 1409.92 1072.77 1424.38 1060.55 1449.96 1040.52 C 1424.61 1080.3 1391.83 1115.14 1342.5 1121.78 C 1310.76 1126.11 1278.63 1117.32 1253.51 1097.45 C 1147.6 1015.39 1196.6 846.628 1331.61 831.379 z" fill="rgb(217,123,63)" transform="translate(0,0)"></path>
<path d="M 648.668 833.423 C 655.8 832.704 666.471 832.772 673.872 832.596 L 673.44 1063.09 C 701.904 1037.16 727.474 1007.28 755.06 980.315 C 775.543 960.292 786.249 943.057 813.957 932.153 C 803.91 940.461 792.785 952.085 783.299 961.397 C 766.092 978.556 748.501 995.326 730.539 1011.69 C 739.108 1024.27 749.848 1037.67 759.5 1049.39 C 771.112 1063.75 783.446 1078.34 793.347 1093.89 C 786.411 1102.94 767.597 1121.53 758.768 1131.12 C 735.855 1105.31 715.482 1077.35 691.272 1051.8 C 671.727 1070.39 642.391 1099.38 624.227 1119.19 C 623.573 1053.87 625.066 988.288 624.793 922.936 C 624.66 891.039 626.793 866.175 617.733 835.191 C 627.57 834.98 638.751 834.033 648.668 833.423 z" fill="rgb(217,123,63)" transform="translate(0,0)"></path>
<path d="M 1112.35 926.391 C 1126.85 925.459 1142.13 928.502 1153.54 937.885 C 1179.04 958.842 1175.44 991.376 1175.81 1020.79 C 1176.22 1053.59 1174.54 1086.04 1178.27 1118.68 L 1127.01 1118.53 L 1126.99 1037.9 C 1127.15 1005.2 1135.23 934.098 1074 952.391 C 1063.52 955.523 1055.23 972.454 1051.59 982.476 C 1043.76 1011.46 1047.87 1084.3 1046.38 1118.92 C 1033.37 1118.91 1014.31 1119.43 1001.78 1118.45 L 1002.36 1028.66 C 1002.58 993.744 1004.79 967.545 997.186 933.263 C 1015.66 931.573 1032.69 931.119 1051.07 929.953 C 1051.24 944.45 1049.29 960.317 1048.83 975.237 C 1052.99 967.566 1057.91 960.327 1063.5 953.624 C 1077.34 937.072 1090.72 928.258 1112.35 926.391 z" fill="rgb(217,123,63)" transform="translate(0,0)"></path>
<path d="M 892.705 929.341 C 942.883 922.133 971.634 960.093 980.066 1004.92 L 842.252 1004.94 C 845.505 1078.05 895.252 1120.91 962.37 1076.78 C 967.126 1072.85 970.776 1069.79 975.926 1066.37 C 974.048 1069.34 972.095 1072.27 970.068 1075.14 C 953.651 1098.09 930.796 1116.55 902.266 1120.94 C 880.26 1124.5 857.752 1118.92 839.961 1105.49 C 821.137 1091.44 808.662 1070.5 805.276 1047.26 C 801.415 1019.95 809.456 988.82 826.328 966.972 C 842.608 946.145 866.474 932.614 892.705 929.341 z" fill="rgb(217,123,63)" transform="translate(0,0)"></path>
<path d="M 884.766 934.241 C 921.746 933.897 933.009 969.477 938.588 999.032 C 924.277 998.941 910.106 998.468 895.75 998.406 L 842.639 998.548 C 846.118 972.529 854.971 940.487 884.766 934.241 z" fill="rgb(255,255,255)" transform="translate(0,0)"></path>
<metadata><recraft-signature>{"signed_by": "recraft", "signature_b64": "Fv408D/mp3vDQ1eydbSv41kg55rNWEkFCVR+42qwtFO6pVMN/4YUz+lMS+Ulo2vOuG8wTdadXgHIltirgQWSCg==", "signing_algo": "Ed25519", "generation_timestamp": 1772101150, "identifier": "eab80d4a-b6f0-47f6-9cc8-0844d18f2e6e"}</recraft-signature></metadata></svg>