<svg xmlns="http://www.w3.org/2000/svg" height="1024" preserveAspectRatio="none" style="display: block;" version="1.1" viewBox="0 0 2048 2048" width="1024">
<path d="M 0 0 L 2048 0 L 2048 2048 L 0 2048 L 0 0 z" fill="rgb(255,255,255)" transform="translate(0,0)"></path>
<path d="M 1479.02 946.382 C 1493.08 945.068 1516.95 947.587 1529.75 954.129 C 1545.52 962.182 1549.96 973.775 1554.89 989.173 C 1554.92 975.602 1554.56 961.652 1554.44 948.025 C 1563.61 949.301 1574.54 952.571 1574.74 963.933 C 1575.72 1016.94 1575.1 1070.22 1574.6 1123.23 C 1574.58 1125.5 1571.95 1126.14 1570.42 1126.73 C 1549.78 1125.17 1552.91 1102.94 1554.44 1088.99 C 1551.57 1093.19 1548.53 1097.08 1545.44 1101.11 C 1532.46 1114.04 1516.27 1123.03 1497.99 1125.01 C 1379.55 1137.86 1353.36 961.393 1479.02 946.382 z" fill="rgb(217,123,63)" transform="translate(0,0)"></path>
<path d="M 1475.11 970.939 C 1511.24 965.442 1545 990.224 1550.59 1026.34 C 1556.18 1062.46 1531.48 1096.29 1495.38 1101.97 C 1459.15 1107.67 1425.17 1082.86 1419.56 1046.62 C 1413.95 1010.37 1438.85 976.455 1475.11 970.939 z" fill="rgb(255,255,255)" transform="translate(0,0)"></path>
<path d="M 1677.14 947.305 C 1723.4 941.539 1770.34 981.198 1772.7 1028.31 C 1776.46 1103.18 1703.7 1149.32 1637.59 1113.84 C 1632.23 1110.97 1628.28 1107.34 1623.82 1103.24 C 1619.2 1107.65 1629.65 1183.6 1613.82 1192.25 C 1609.6 1194.57 1605.71 1198.68 1600.8 1195.8 C 1597.34 1188.38 1599.13 1161.17 1599.11 1151.75 L 1599.14 1076.83 C 1599.26 1033.09 1597.61 989.7 1638.76 961.747 C 1651.41 953.151 1662.21 949.858 1677.14 947.305 z" fill="rgb(217,123,63)" transform="translate(0,0)"></path>
<path d="M 1674.02 971.189 C 1689.48 970.068 1700.84 970.549 1715.1 977.687 C 1730.27 985.288 1741.75 998.679 1746.93 1014.84 C 1759.33 1053.29 1735.52 1090.53 1698.13 1102.34 C 1602.28 1116.02 1599.9 988.096 1674.02 971.189 z" fill="rgb(255,255,255)" transform="translate(0,0)"></path>
<path d="M 520.967 948.017 C 569.888 941.321 614.927 975.681 621.396 1024.63 C 627.864 1073.58 593.295 1118.46 544.314 1124.7 C 495.653 1130.9 451.132 1096.61 444.706 1047.98 C 438.28 999.348 472.366 954.668 520.967 948.017 z" fill="rgb(217,123,63)" transform="translate(0,0)"></path>
<path d="M 522.001 971.122 C 558.472 965.477 592.602 990.496 598.195 1026.97 C 603.788 1063.45 578.721 1097.55 542.235 1103.09 C 505.823 1108.62 471.812 1083.61 466.23 1047.21 C 460.648 1010.8 485.605 976.756 522.001 971.122 z" fill="rgb(255,255,255)" transform="translate(0,0)"></path>
<path d="M 857.541 946.312 C 861.09 945.859 863.928 945.647 867.515 945.687 C 890.275 945.763 912.051 954.979 927.95 971.265 C 949.711 993.644 955.289 1015.17 954.994 1045.02 L 803.455 1045.04 C 812.282 1098.76 865.441 1119.55 908.891 1089.53 C 915.377 1084.04 918.472 1079.93 923.496 1073.24 C 931.412 1073.79 939.715 1073.97 947.673 1074.27 C 935.615 1102.32 912.227 1119.38 882.295 1124.11 C 859.163 1127.78 835.521 1122.11 816.573 1108.34 C 765.952 1071.28 770.114 984.835 826.776 955.885 C 837.635 950.337 845.575 948.17 857.541 946.312 z" fill="rgb(217,123,63)" transform="translate(0,0)"></path>
<path d="M 864.993 967.426 C 903.105 968.387 921.31 987.947 932.549 1022.67 C 913.665 1023.32 892.552 1022.92 873.5 1022.97 C 850.31 1023.13 827.119 1023.04 803.931 1022.7 C 812.011 988.73 829.439 970.742 864.993 967.426 z" fill="rgb(255,255,255)" transform="translate(0,0)"></path>
<path d="M 1264.26 874.348 C 1303.72 868.506 1346.05 887.205 1369.05 919.463 C 1375.82 928.95 1381.34 941.088 1389.55 948.823 C 1391.21 950.389 1400.53 953.212 1403.3 954.159 L 1359.84 953.202 C 1331.15 893.931 1269.42 878.042 1214.59 917.362 C 1193.82 933.728 1179.69 963.28 1176.73 989.03 C 1168.5 1060.76 1224.11 1113.76 1294.37 1099.78 C 1330.92 1089.36 1339.04 1075.95 1361.02 1047.85 C 1366.75 1040.54 1376.01 1040.69 1384.78 1041.11 C 1382.27 1053.99 1374.98 1068.14 1367.41 1078.76 C 1329.38 1132.07 1252.75 1138.3 1201.53 1101.04 C 1175.75 1082.39 1158.7 1054.02 1154.33 1022.5 C 1143.49 948.882 1190.35 884.815 1264.26 874.348 z" fill="rgb(217,123,63)" transform="translate(0,0)"></path>
<path d="M 665.876 869.072 C 670.107 875.18 663.758 1019.11 669.209 1023.71 C 685.074 1022.66 746.884 957.078 765.96 946.81 L 792.994 947.013 C 764.675 973.14 720.369 1011.65 690.929 1035.37 C 703.957 1044.1 731.632 1072.65 745.115 1085.47 C 758.877 1097.99 773.592 1113.11 787.147 1126.22 L 763.193 1126.79 C 755.464 1122.29 753.548 1119.61 746.978 1114.41 C 727.211 1098.77 703.323 1066.32 683.158 1053.14 L 667.1 1052.8 C 667.263 1073.17 667.207 1093.54 666.931 1113.91 C 663.154 1119.95 655.335 1130.84 647.315 1126.04 C 646.093 1119.39 646.586 1101.62 646.524 1093.96 C 646.178 1067.2 646.18 1040.43 646.531 1013.67 C 646.671 974.281 645.593 934.814 646.235 895.421 C 646.491 879.644 651.455 873.888 665.876 869.072 z" fill="rgb(217,123,63)" transform="translate(0,0)"></path>
<path d="M 276.029 870.851 L 409.483 870.955 C 419.597 870.966 457.967 870.224 466.104 871.451 C 474.289 872.726 481.557 877.394 486.123 884.306 C 488.297 887.554 488.157 888.525 487.509 891.762 C 483.104 896.135 465.729 894.236 458.871 894.265 L 396.788 894.486 L 395.972 1036.86 C 395.893 1054.62 397.791 1102.7 393.326 1117.1 C 389.072 1121.83 380.189 1130.27 373.632 1126.28 C 372.779 1120.24 373.163 1105.11 373.19 1098.53 L 373.443 1048.93 C 373.842 997.304 373.734 945.68 373.118 894.061 C 355.444 893.943 298.458 896.676 285.891 889.021 C 279.3 885.007 277.48 877.942 276.029 870.851 z" fill="rgb(217,123,63)" transform="translate(0,0)"></path>
<path d="M 1048.57 947.26 C 1072.6 945.72 1089.12 949.231 1108.08 964.821 C 1138.03 988.548 1140.28 1023.35 1138.76 1058.83 C 1138.33 1068.84 1140.95 1122.73 1137.07 1127.24 C 1130.79 1128.58 1120.35 1120.73 1118.58 1115.25 C 1114.27 1100.48 1116.15 1082.41 1116.12 1066.86 C 1116.06 1025.29 1120.52 984.27 1069.74 971.5 C 1051.63 967.771 1034.66 971.091 1020.65 983.858 C 997.968 1004.52 999.465 1033.71 999.308 1061.88 C 999.211 1079.42 999.749 1097.69 998.923 1115.33 C 994.489 1121.31 986.746 1129.55 978.608 1127.06 C 976.028 1122.06 977.628 1024.92 979.435 1015.64 C 981.882 1003.04 986.938 991.099 994.28 980.576 C 1008.48 960.581 1024.85 951.383 1048.57 947.26 z" fill="rgb(217,123,63)" transform="translate(0,0)"></path>
<metadata><recraft-signature>{"signed_by": "recraft", "signature_b64": "anVTfvi0JINxmfFhgpjrZEQcxu8daTrLtf9SP0GtAEbngK1XjTwG0UvSixU7bamf4rBJVu44CKWUJhJ3i1ERAg==", "signing_algo": "Ed25519", "generation_timestamp": 1772101149, "identifier": "63b3d662-bd0c-4ea7-b646-5cba5dfc2d5e"}</recraft-signature></metadata></svg>