<svg xmlns="http://www.w3.org/2000/svg" height="1024" preserveAspectRatio="none" style="display: block;" version="1.1" viewBox="0 0 2048 2048" width="1024">
<path d="M 0 0 L 2048 0 L 2048 2048 L 0 2048 L 0 0 z" fill="rgb(255,255,255)" transform="translate(0,0)"></path>
<path d="M 1723.57 909.786 C 1726.19 912.29 1724.99 948.903 1724.95 955.299 C 1734.28 943.79 1744.91 932.15 1758.06 925.035 C 1804.46 899.919 1855.83 918.209 1881.05 962.206 C 1897.74 991.832 1901.83 1026.92 1892.42 1059.59 C 1877.1 1114.12 1830.19 1155.04 1771.75 1138.39 C 1751.67 1131.54 1737.37 1121.65 1723.08 1106.3 C 1723.39 1145.91 1722.74 1195.75 1724.65 1234.29 C 1713.93 1235.08 1698.79 1234.45 1687.3 1234.81 C 1686.32 1179.57 1687.23 1123.38 1687 1068.01 C 1686.8 1020.57 1688.74 990.269 1681.96 943.252 C 1691.41 934.092 1712.59 918.397 1723.57 909.786 z" fill="rgb(217,123,63)" transform="translate(0,0)"></path>
<path d="M 1776.69 933.432 C 1858.29 932.93 1874.54 1046.46 1844.82 1104 C 1836.79 1119.53 1821.07 1129.52 1804.37 1133.84 C 1803.1 1134.04 1801.81 1134.21 1800.53 1134.35 C 1784.83 1135.9 1765.94 1130.37 1754.07 1119.96 C 1721.68 1091.53 1719.12 1042.69 1721.4 1002.67 C 1722.54 982.633 1726.95 964.809 1739.75 949.189 C 1750 936.682 1761.79 934.738 1776.69 933.432 z" fill="rgb(255,255,255)" transform="translate(0,0)"></path>
<path d="M 427.867 914.416 C 486.723 911.016 536.9 951.747 541.89 1011.99 C 546.858 1071.95 505.614 1141.33 440.91 1145.03 C 412.406 1145.55 383.938 1136.57 362.049 1118.08 C 287.222 1054.86 328.764 922.193 427.867 914.416 z" fill="rgb(217,123,63)" transform="translate(0,0)"></path>
<path d="M 417.765 922.261 C 459.872 917.136 488.641 964.49 496.961 999.506 C 507.123 1042.27 503.71 1124.33 450.573 1137.29 C 386.419 1143.21 361.017 1059.8 365.424 1009.7 C 368.521 974.491 376.887 930.114 417.765 922.261 z" fill="rgb(255,255,255)" transform="translate(0,0)"></path>
<path d="M 1474.62 980.486 C 1476.01 966.923 1478.36 956.291 1487.17 945.133 C 1506.93 920.18 1544.57 909.84 1575.19 913.063 C 1600.92 915.773 1633.07 936.374 1636.67 963.747 C 1638.72 979.306 1638.19 995.676 1638.19 1011.44 L 1638.09 1085.88 C 1638.05 1094.86 1635.59 1119.21 1642.16 1124.04 C 1652.69 1124.66 1667.77 1108.56 1676.59 1101.92 C 1662.09 1125.89 1641.8 1153.95 1609.51 1137.17 C 1598.36 1131.37 1599.77 1091.11 1600.04 1080 C 1599.45 1078.37 1598.76 1078.05 1597.44 1076.76 C 1591.2 1099.4 1581.42 1123.93 1559.96 1135.63 C 1520.31 1157.26 1469.97 1138.67 1464.78 1090.7 C 1457.66 1024.9 1526.67 1018.48 1571.98 999.818 C 1582.68 995.445 1595.42 987.882 1598.84 976.273 C 1602.34 964.384 1598.43 946.843 1592.33 936.186 C 1579.89 914.455 1546.06 914.884 1530.34 932.71 C 1515.72 949.284 1513.09 966.642 1512.7 987.344 C 1498.22 985.778 1488.81 984.607 1474.62 980.486 z" fill="rgb(217,123,63)" transform="translate(0,0)"></path>
<path d="M 1599.82 1069.16 C 1599.96 1072.89 1600.11 1076.25 1600.04 1080 C 1599.45 1078.37 1598.76 1078.05 1597.44 1076.76 C 1597.68 1074.62 1598.2 1072.27 1598.61 1070.14 C 1599.2 1069.77 1599.46 1069.7 1599.82 1069.16 z" fill="rgb(249,199,197)" transform="translate(0,0)"></path>
<path d="M 1598.96 989.156 C 1600.61 991.256 1599.97 1008.17 1600.03 1012.55 C 1600.27 1044.16 1598.96 1081.55 1577.94 1107.31 C 1560.75 1128.38 1537.04 1129.59 1516.94 1112.51 C 1494.78 1086.82 1499.81 1041.9 1527.59 1024.72 C 1550.93 1010.29 1574.06 1006.02 1598.96 989.156 z" fill="rgb(255,255,255)" transform="translate(0,0)"></path>
<path d="M 842.541 913.388 C 897.195 908.936 933.509 954.31 944.966 1003.15 C 884.466 1005.97 836.392 1007.87 776.958 1017.43 C 776.945 1019.17 776.944 1020.9 776.955 1022.63 C 777.399 1050.92 789.033 1077.88 809.309 1097.61 C 844.135 1131.5 888.725 1129.01 921.809 1094.42 C 930.001 1084.53 935.056 1075.67 941.711 1064.72 C 922.984 1136.36 840.006 1172.47 779.551 1124.5 C 726.965 1082.77 730.165 997.781 771.251 949.597 C 790.514 927.006 812.75 916.226 842.541 913.388 z" fill="rgb(217,123,63)" transform="translate(0,0)"></path>
<path d="M 836.261 923.19 C 881.792 919.869 893.661 955.336 903.102 991.863 C 883.312 996.24 858.774 998.842 837.78 1003.03 C 815.626 1007.07 799.51 1009.88 777.254 1011.77 C 781.442 973.985 794.066 932.248 836.261 923.19 z" fill="rgb(255,255,255)" transform="translate(0,0)"></path>
<path d="M 606.68 825.765 C 607.775 832.858 606.976 876.169 606.962 885.849 C 606.989 935.423 606.741 984.998 606.215 1034.57 C 616.543 1023.96 626.01 1011.41 636.507 1000.9 C 651.864 985.537 668.651 970.488 684.925 956.084 C 699.239 943.414 715.35 928.067 730.284 916.43 L 744.997 916.102 C 740.148 919.478 735.881 922.966 731.544 926.967 C 707.967 948.716 682.874 969.096 659.751 991.304 C 670.9 1011.43 685.275 1029.87 698.168 1048.95 C 714.251 1072.74 729.769 1096.91 746.017 1120.58 C 751.452 1128.3 756.721 1136.13 761.822 1144.07 C 745.825 1142.77 729.753 1142.67 713.74 1143.76 C 684.466 1102.52 655.583 1061 627.094 1019.21 C 601.014 1053.12 606.752 1100.91 606.679 1143.12 L 569.513 1143.33 C 569.009 1076.78 569.372 1010.17 568.884 943.625 C 568.685 916.387 565.668 888.506 564.884 861.395 C 579.094 849.849 593.03 837.969 606.68 825.765 z" fill="rgb(217,123,63)" transform="translate(0,0)"></path>
<path d="M 167.169 818.948 C 198.65 819.83 232.944 819.019 264.616 818.897 L 411.24 818.954 C 400.245 830.725 390.572 844.179 379.229 856.12 C 341.957 854.384 327.15 842.96 296.04 823.2 L 295.926 1047.5 C 295.967 1079.71 295.802 1111.92 295.433 1144.13 C 280.816 1143.93 266.199 1143.87 251.581 1143.94 L 250.751 823.728 C 243.632 827.191 230.778 835.482 223.312 839.644 C 197.292 854.145 176.947 855.378 148.192 856.004 C 154.414 843.599 160.739 831.247 167.169 818.948 z" fill="rgb(217,123,63)" transform="translate(0,0)"></path>
<path d="M 1322.17 822.392 C 1368.36 817.656 1414.07 836.215 1438.96 876.622 C 1442.98 883.145 1446.86 889.158 1448.9 896.636 L 1409.8 911.39 C 1396.87 878.734 1376.3 849.995 1341.49 838.177 C 1288.2 820.084 1248.01 862.282 1234.12 910.289 C 1220.56 957.137 1219.74 1011.4 1243.08 1055.53 C 1272.29 1111.15 1327.08 1145.72 1387.74 1113.85 C 1413.11 1098.78 1428.85 1079.35 1440.28 1052.28 C 1442.11 1047.94 1446.09 1036.78 1449.52 1034.34 C 1451.16 1048.44 1433.38 1084.16 1424.41 1095.74 C 1378.46 1155.04 1299.75 1159.87 1241.38 1114.39 C 1169.06 1058.05 1162.21 949.884 1217.54 879.02 C 1244.7 844.226 1278.72 827.099 1322.17 822.392 z" fill="rgb(217,123,63)" transform="translate(0,0)"></path>
<path d="M 1012.61 909.747 C 1014.22 914.693 1013.45 952.942 1013.67 961.561 C 1019.29 952.463 1024.38 944.317 1031.85 936.469 C 1058.49 908.579 1107.5 904.073 1136.23 931.28 C 1154.54 948.61 1153.22 969.591 1153.53 992.553 C 1153.67 1002.93 1153.82 1013.39 1153.95 1023.78 L 1155.12 1143.65 C 1141.83 1143.12 1128.53 1143.59 1115.23 1143.87 C 1114.92 1094.06 1116.78 1031.81 1113.59 983.283 C 1112.76 971.375 1111.18 952.706 1102.04 944.187 C 1077.29 921.125 1041.53 933.416 1023.44 958.434 C 1012.05 974.178 1012.42 982.829 1012.91 1001.76 C 1013.07 1010.91 1012.95 1020.97 1012.98 1030.07 L 1013.18 1143.83 C 1000.81 1143.1 988.265 1143.26 975.884 1143.53 L 975.95 1042.97 C 975.956 1007.56 976.416 976.867 971.882 941.51 L 1012.61 909.747 z" fill="rgb(217,123,63)" transform="translate(0,0)"></path>
<metadata><recraft-signature>{"signed_by": "recraft", "signature_b64": "f1hgVuX/aAf8oXprfjJBNWrxFkf0fMzoxmrPT5Ufj3oi6pfbnKtKfZeUAFcu/zBxOYdjnw+xZNhtMllNsVxSDA==", "signing_algo": "Ed25519", "generation_timestamp": 1772101151, "identifier": "48f89bed-1b0f-4b9a-9409-ac5ca054d216"}</recraft-signature></metadata></svg>