<svg xmlns="http://www.w3.org/2000/svg" height="1024" preserveAspectRatio="none" style="display: block;" version="1.1" viewBox="0 0 2048 2048" width="1024">
<path d="M 0 0 L 2048 0 L 2048 2048 L 0 2048 L 0 0 z" fill="rgb(255,255,255)" transform="translate(0,0)"></path>
<path d="M 1847.85 921.314 C 1927.72 914.165 1982.3 1000.03 1955.48 1072 C 1940.27 1112.79 1902.93 1144.86 1858.13 1144.82 C 1828.67 1144.78 1807.96 1129.66 1787.92 1109.53 C 1788.08 1127 1787.86 1144.75 1787.81 1162.25 L 1787.65 1238.98 C 1774.11 1238.85 1760.56 1238.83 1747.02 1238.92 L 1746.95 926.965 L 1787.03 926.896 L 1786.99 957.73 C 1804.61 937.209 1820.79 925.678 1847.85 921.314 z" fill="rgb(217,123,63)" transform="translate(0,0)"></path>
<path d="M 1841.24 958.266 C 1875.27 954.397 1907.25 978.365 1917.33 1010.47 C 1923.3 1030.04 1921.25 1051.18 1911.61 1069.24 C 1901.48 1087.93 1884.43 1097.83 1864.65 1103.7 C 1824.05 1112.35 1793.63 1087.94 1786.79 1048.34 C 1782.82 1026.06 1787.91 1003.12 1800.91 984.605 C 1811.22 970.088 1823.59 961.32 1841.24 958.266 z" fill="rgb(255,255,255)" transform="translate(0,0)"></path>
<path d="M 1589.4 921.406 C 1594.5 921.41 1599.6 921.771 1604.66 922.488 C 1629.78 926.085 1646.15 939.52 1661 958.954 L 1661.09 927.095 L 1701.06 926.776 L 1700.95 1142.2 C 1687.57 1142.18 1674.19 1142.35 1660.82 1142.72 C 1660.66 1130.98 1660.43 1119.24 1660.11 1107.5 C 1655.57 1113 1651.67 1117.29 1646.76 1122.47 C 1610.49 1153.94 1564.77 1151.73 1528.96 1121.13 C 1456.52 1059.21 1488.92 927.656 1589.4 921.406 z" fill="rgb(217,123,63)" transform="translate(0,0)"></path>
<path d="M 1595.33 958.28 C 1611.62 956.056 1627.27 961.577 1638.9 973.087 C 1679.56 1013.35 1666.33 1105.81 1599.59 1106.03 C 1585.61 1104.5 1575.41 1101.81 1563.54 1093.75 C 1547.46 1082.68 1536.54 1065.57 1533.28 1046.32 C 1525.72 1003.8 1552.8 965.459 1595.33 958.28 z" fill="rgb(255,255,255)" transform="translate(0,0)"></path>
<path d="M 397.595 926.159 C 456.443 919.479 509.649 961.55 516.719 1020.35 C 523.789 1079.15 482.071 1132.64 423.317 1140.1 C 364.01 1147.63 309.912 1105.43 302.776 1046.07 C 295.64 986.719 338.193 932.902 397.595 926.159 z" fill="rgb(217,123,63)" transform="translate(0,0)"></path>
<path d="M 402.559 956.265 C 501.363 948.512 509.606 1099.15 418.97 1109.29 C 322.813 1117.13 306.607 973.071 402.559 956.265 z" fill="rgb(255,255,255)" transform="translate(0,0)"></path>
<path d="M 833.561 922.347 C 891.537 916.423 932.706 954.076 946.67 1009.04 C 950.001 1022.15 949.343 1035.08 949.166 1048.49 L 774.056 1049.06 C 784.334 1082.24 803.172 1105.82 839.963 1108.9 C 863.639 1110.87 881.588 1102.73 899.331 1087.61 C 901.953 1085.58 906.629 1080.25 909.078 1077.62 C 914.608 1081.68 927.58 1094.23 933.238 1099.46 C 932.609 1100.38 931.966 1101.28 931.31 1102.18 C 897.766 1148.33 827.183 1156.42 781.413 1122.89 C 700.942 1063.94 735.577 935.051 833.561 922.347 z" fill="rgb(217,123,63)" transform="translate(0,0)"></path>
<path d="M 839.342 956.265 C 876.515 953.176 903.443 984.907 912.102 1018.11 C 891.396 1018.46 870.687 1018.58 849.978 1018.46 C 824.779 1018.56 799.58 1018.52 774.382 1018.35 C 784.047 985.153 804.022 962.584 839.342 956.265 z" fill="rgb(255,255,255)" transform="translate(0,0)"></path>
<path d="M 1346.62 827.412 C 1355.12 826.357 1371.85 827.087 1380.38 828.352 C 1421.58 834.468 1447.09 848.985 1471.91 881.514 C 1461.95 891.003 1455.27 898.363 1446.77 909.129 C 1431.6 893.603 1418.92 882.609 1398.25 874.73 C 1370.86 864.386 1340.46 865.489 1313.9 877.792 C 1285.86 890.422 1264.1 913.84 1253.58 942.736 C 1242.74 972.365 1244.66 1007.64 1258.2 1036.11 C 1271.26 1064.08 1295.07 1085.59 1324.23 1095.73 C 1354.77 1106.24 1380.32 1103.02 1408.79 1089.27 C 1423.62 1081.02 1432.37 1072.68 1444.25 1060.96 C 1453.18 1069.26 1461.3 1078.26 1469.59 1087.19 C 1468.3 1088.97 1466.97 1090.72 1465.59 1092.43 C 1416.85 1152.56 1319.45 1156.79 1261.04 1108.5 C 1228.99 1081.9 1208.94 1043.55 1205.37 1002.04 C 1201.57 958.524 1213.76 914.513 1242.1 880.909 C 1268.32 849.731 1306 830.443 1346.62 827.412 z" fill="rgb(217,123,63)" transform="translate(0,0)"></path>
<path d="M 553.675 816.497 L 589.242 816.88 L 589.099 1038.4 C 606.402 1018.24 626.14 998.014 644.517 978.721 C 661.476 960.915 679.114 941.949 696.752 924.925 C 711.11 924.685 725.966 924.939 740.363 925.008 C 711.761 953.12 684.332 982.621 656.441 1011.51 C 670.14 1034.45 696.02 1068.92 711.877 1091.05 C 723.72 1107.68 735.02 1125.34 746.856 1142.25 C 733.227 1142.14 719.599 1141.83 705.979 1141.32 C 681.604 1105.43 657.035 1069.67 632.271 1034.04 C 618.911 1046.19 600.54 1065.92 589.48 1080.01 C 588.828 1100.35 589.177 1122.07 589.158 1142.5 C 577.259 1142.06 564.792 1142.18 552.845 1142.13 L 553.145 910.043 L 552.985 849.061 C 552.96 841.88 552.399 821.954 553.675 816.497 z" fill="rgb(217,123,63)" transform="translate(0,0)"></path>
<path d="M 1082.86 921.365 C 1107.22 918.831 1126.64 926.862 1143.91 943.711 C 1176.87 975.864 1171.39 1019.51 1171.42 1061.62 L 1171.45 1142.11 L 1129.66 1142.29 L 1129.85 1059.05 C 1129.84 1032.9 1133.34 998.275 1115.07 977.645 C 1096.61 956.801 1067.14 957.837 1044.52 970.224 C 1015.96 993.257 1020.94 1026.74 1021.1 1059.66 L 1021.42 1142.45 L 981.669 1142.54 C 981.144 1070.67 981.043 998.804 981.366 926.935 L 1022.12 926.804 C 1021.97 938.359 1021.93 949.915 1022.01 961.47 C 1034.3 937.108 1056.54 924.697 1082.86 921.365 z" fill="rgb(217,123,63)" transform="translate(0,0)"></path>
<path d="M 102.845 829.015 L 337.926 828.989 L 337.803 868.882 C 304.778 868.585 270.329 867.988 237.404 868.559 C 236.578 924.99 237.184 982.969 237.119 1039.5 L 237.045 1141.92 L 199.138 1141.94 C 198.055 1051.91 199.165 959.191 198.97 868.864 C 166.916 868.354 134.856 868.327 102.801 868.783 L 102.845 829.015 z" fill="rgb(217,123,63)" transform="translate(0,0)"></path>
<metadata><recraft-signature>{"signed_by": "recraft", "signature_b64": "rsYHf7u07/tWJZu0TXhHByAhPrcndlUi1DcwuNZ9ptDmU6FS+cdwwr1emCMd7MKNP5syJtQvEYL2l530duHCBg==", "signing_algo": "Ed25519", "generation_timestamp": 1772101151, "identifier": "dd20356c-1ad5-42c5-8019-c6422fdef0d4"}</recraft-signature></metadata></svg>