<svg xmlns="http://www.w3.org/2000/svg" height="1024" preserveAspectRatio="none" style="display: block;" version="1.1" viewBox="0 0 2048 2048" width="1024">

<path d="M 1004.06 379.935 C 1167.77 372.793 1346.63 444.116 1466.94 554.184 C 1596.89 671.352 1673.94 836.091 1680.57 1010.94 C 1688.23 1187.34 1618.06 1364.73 1497.02 1492.25 C 1475.28 1515.16 1464.21 1516.79 1441.2 1493.81 C 1427.31 1479.94 1413.27 1465.5 1399.37 1451.68 L 1337.74 1391.45 C 1329.01 1382.7 1320.14 1374.1 1311.12 1365.65 C 1306.01 1360.87 1299.66 1355.66 1295.13 1350.49 C 1278.1 1331 1301.75 1305.44 1322.29 1321.28 C 1334.72 1330.86 1345.76 1343.51 1357.86 1353.58 C 1384.9 1378.35 1411.51 1402.86 1438.56 1427.66 C 1446.15 1434.63 1457.68 1446.63 1466.34 1452.73 C 1468.09 1453.96 1470.34 1452.74 1472.09 1452 C 1473.12 1449.93 1473.47 1449.55 1472.73 1447.22 C 1470.67 1440.65 1400.9 1378.75 1390.32 1369.42 C 1398.63 1360.51 1408.53 1350.37 1415.53 1340.56 C 1426.54 1348.69 1501.17 1410.85 1506.31 1410.7 C 1509 1408.87 1508.86 1409.06 1510 1406.01 C 1509.32 1400.5 1507.74 1400.74 1503.67 1397.19 C 1478.34 1375.08 1446.12 1354.73 1422.18 1331.73 C 1428.35 1322.95 1435.24 1313.62 1440.57 1304.4 C 1465.84 1320.09 1508.42 1350.9 1536.58 1366.74 C 1537.29 1366.62 1538 1366.51 1538.71 1366.39 C 1540.87 1363.66 1541.04 1363.87 1541.41 1360.47 C 1540.36 1358.08 1539.02 1356.14 1536.77 1354.69 C 1506.73 1335.4 1476.02 1316.3 1446.69 1295.92 C 1451.82 1286.51 1457.34 1275.92 1462.73 1266.77 C 1484.45 1279.31 1506.31 1291.61 1528.31 1303.65 C 1537.29 1308.65 1554.3 1318.92 1563.02 1322.55 C 1565.66 1321.55 1566.28 1319.86 1567.81 1317.42 C 1566.94 1311.39 1551.32 1303.78 1545.47 1301.14 C 1519.87 1289.58 1492.52 1269.84 1467.38 1258.67 C 1471.9 1248.98 1476.35 1239.26 1480.74 1229.51 C 1508.46 1242.11 1536.43 1254.16 1564.64 1265.64 C 1572.89 1268.92 1577.83 1272.33 1586.3 1274.22 C 1589.54 1272.57 1588.24 1273.79 1589.91 1270.03 C 1589.7 1267.72 1590.18 1267.24 1588.3 1266.25 C 1557.38 1249.84 1516.06 1235.25 1484.97 1219.97 C 1488.28 1210.77 1491.67 1200.86 1495.14 1191.77 C 1509.79 1196.13 1598.64 1226.83 1605.59 1226.26 L 1608 1224.52 C 1604.77 1213.32 1576.67 1207.63 1565.64 1204.03 C 1543.01 1196.7 1520.46 1189.11 1498 1181.29 C 1500.62 1171.41 1503.39 1161.57 1506.31 1151.77 L 1580.58 1169.42 C 1591.07 1171.98 1610.92 1180.01 1620.29 1175.21 L 1621.65 1173.43 C 1621.42 1171.99 1621.34 1170.12 1619.43 1169.47 C 1587.39 1158.65 1539.72 1150.95 1508.73 1141.04 C 1510.89 1131.01 1512.37 1120.76 1513.96 1110.61 C 1550 1118.64 1588.73 1120.92 1625.07 1127.96 C 1625.97 1128.13 1627.24 1127.4 1628.03 1127.01 C 1630.26 1123.81 1629.76 1125.52 1629.69 1121.7 C 1624.56 1114.58 1603.26 1114.72 1593.83 1113.33 L 1515.72 1101.64 C 1516.27 1091.04 1517.04 1080.44 1518.01 1069.87 C 1543.32 1070.88 1568.61 1072.11 1593.9 1073.56 C 1604.96 1074.13 1616.41 1074.76 1627.52 1075.35 C 1630.49 1075.5 1631.58 1074.48 1633.51 1072.89 C 1634.39 1069.12 1634.45 1070.93 1633.37 1067.23 C 1622.97 1058.53 1438.4 1059.59 1411.68 1056.04 C 1405.5 1053.74 1400.4 1047.02 1400.1 1040.5 C 1399.23 1021.88 1416.61 1019.82 1431.2 1019.64 C 1452.2 1019.37 1474.64 1017.24 1495.59 1017.87 C 1503.96 1016.67 1511.39 1017.24 1519.68 1016.9 C 1518.63 1009.26 1518.08 998.708 1517.42 990.817 C 1541.81 987.594 1566.53 985.819 1590.98 983.174 C 1603.05 981.868 1619.07 981.078 1630.44 978.14 C 1632.54 975.795 1632.07 977.118 1632.05 974.101 C 1630.59 971.15 1627.9 968.354 1624.21 968.924 C 1588.25 974.487 1551.63 976.265 1515.57 980.832 C 1514.23 970.945 1512.98 961.559 1511.12 951.733 C 1535.78 946.924 1560.56 942.682 1585.42 939.01 C 1597.09 937.169 1610.22 935.344 1621.79 932.668 C 1624.17 932.116 1624.44 931.149 1625.93 929.329 C 1625.99 925.63 1626.51 927.238 1624.45 924.296 C 1622.42 923.229 1620.44 922.354 1618.03 922.896 C 1582.4 930.918 1544.93 933.615 1509.4 941.787 C 1506.86 931.752 1504.53 920.757 1502.19 910.608 C 1512.34 909.235 1606.35 885.647 1610.43 883.228 C 1613.3 881.53 1614.63 879.893 1615.43 876.583 C 1614.75 874.767 1615.05 874.444 1613.73 873.682 C 1612.45 872.945 1610.85 872.554 1609.37 872.977 C 1598.89 875.972 1587.83 879.034 1577.35 881.776 L 1499.83 901.77 C 1497.18 893.751 1494.77 884.86 1492.39 876.696 C 1515.79 866.781 1540.45 859.172 1564.19 850.125 C 1571.72 847.256 1597.92 839.445 1600.96 833.456 C 1600.52 830.101 1601.1 831.615 1598.97 828.814 C 1596.19 827.768 1594.73 828.607 1591.79 829.48 L 1590.01 830.023 C 1577.45 833.75 1561.51 840.301 1548.95 844.968 L 1488.78 866.737 C 1485.28 858.28 1481.91 848.438 1478.71 839.768 L 1539.31 810.843 C 1546.67 807.41 1580.11 793.759 1582.94 788.049 C 1582.42 784.935 1582.25 785.153 1579.94 782.892 C 1578.04 782.29 1576.04 782.485 1574.21 783.307 C 1540.81 798.275 1508.13 815.7 1474.52 830.104 C 1469.89 821.06 1465.76 811.822 1461.53 802.584 C 1491.59 789.738 1522.54 765.865 1552.57 751.598 C 1556.26 749.848 1560.76 746.825 1561.51 742.533 C 1559.81 738.996 1561.05 740.387 1557.55 738.329 C 1551.12 738.655 1469.65 787.425 1457.12 794.416 L 1440.24 767.245 C 1470.2 749.533 1499.24 725.789 1528.73 706.914 C 1531.35 705.232 1534.21 702.716 1534.71 699.502 C 1533.28 696.714 1533.43 696.86 1531.04 694.855 C 1525.06 695.112 1446.69 751.005 1435.31 759.587 L 1416.44 733.251 C 1442.14 716.734 1468.22 688.082 1494.83 671.264 C 1499.48 668.326 1505.43 663.861 1504.84 658.098 C 1502.38 654.902 1503.87 656.038 1500.26 654.463 C 1495.84 655.237 1419.71 717.496 1410.97 724.831 L 1409.4 724.331 C 1402.83 715.85 1398.31 710.731 1390.83 703.015 C 1406.93 686.847 1423.27 670.916 1439.83 655.227 C 1448.88 646.662 1458.28 638.207 1466.87 629.215 C 1470.19 625.749 1472.74 621.793 1469.42 617.677 C 1467.64 617.136 1465.86 616.326 1464.14 617.72 C 1457.53 623.055 1449.56 631.478 1443.52 637.317 C 1416.24 663.761 1389.15 690.389 1362.23 717.199 C 1349.22 730.175 1335.65 745.065 1321.55 756.684 C 1306.84 767.422 1286.63 753.654 1291.19 736.029 C 1293.62 726.657 1298.58 722.889 1305.1 716.427 C 1347.14 674.714 1386.83 630.705 1428.66 588.744 C 1431.53 585.859 1432.01 584.505 1432.44 580.735 C 1429.75 576.117 1422.11 580.578 1419.27 583.256 C 1395.84 605.331 1371.29 635.198 1346.54 655.052 C 1337.75 646.606 1331.3 640.707 1321.94 632.89 C 1337.12 613.062 1352.62 593.477 1368.42 574.142 C 1371.58 570.232 1386.61 552.363 1388.2 549.098 C 1387.54 546.169 1387.82 545.947 1385.71 543.964 C 1375.89 542.357 1364.52 562.931 1358.41 569.75 C 1342.87 587.11 1329.16 609.444 1313.56 626.449 C 1304.43 620.383 1291.69 610.414 1283.09 605.388 C 1290.4 594.281 1340.75 521.719 1340.72 515.135 C 1339.82 513.866 1339.83 513.263 1338.18 512.906 C 1335.39 512.299 1333.01 513.317 1330.79 514.949 C 1324.28 519.735 1281.8 588.755 1275.45 599.98 C 1266.17 595.182 1249.8 585.598 1240.96 582.348 C 1258.32 555.024 1270.18 521.679 1288.44 494.413 C 1289.59 492.695 1290.11 489.534 1290.17 487.53 C 1285.2 477.21 1278.38 489.539 1275.67 494.301 C 1260.33 521.266 1247.46 550.494 1231.85 577.197 C 1222.1 571.726 1208.21 566.698 1197.58 562.598 C 1206.46 541.131 1215.14 519.58 1223.61 497.947 C 1226.97 489.603 1239.54 467.458 1232.53 460.169 C 1230.65 460.147 1230.52 459.779 1228.99 461.122 C 1221.05 468.091 1194.93 543.621 1187.94 559.53 C 1175.26 554.728 1165.61 551.81 1152.3 548.529 C 1155.84 532.989 1179.04 451.882 1175.77 443.127 L 1174.02 441.608 C 1170.77 442.159 1168.93 443.964 1167.12 446.623 C 1161.34 455.139 1147.08 527.862 1141.32 545.698 C 1129.3 543.283 1116.13 540.85 1103.91 539.667 L 1113.75 473.047 C 1115.2 463.7 1122.68 433.758 1114.45 428.361 C 1111.62 429.738 1109.82 430.859 1109.23 434.306 C 1103.54 467.356 1097.18 505.803 1093.48 538.693 C 1080.26 537.213 1068.04 535.903 1054.65 536.252 C 1055.23 513.671 1056.1 491.097 1057.24 468.537 C 1057.7 458.298 1061.03 426.06 1055.04 420.073 C 1049.87 420.177 1047.88 426.153 1047.69 430.595 C 1045.58 480.124 1044.12 529.58 1042.11 579.134 C 1041.48 594.771 1042.78 613.36 1039.68 628.754 C 1038.17 636.259 1028.84 643.701 1021.05 644.847 C 1015.71 645.663 1010.27 644.135 1006.13 640.654 C 1000.83 636.201 997.698 627.585 997.863 620.811 C 999.81 540.846 999.096 459.754 1004.06 379.935 z" fill="rgb(217,123,63)" transform="translate(0,0)"></path>
<path d="M 1552.64 1016.15 C 1578.25 1014.73 1603.88 1013.32 1629.45 1011.43 C 1635.27 1011 1636.74 1018.25 1634.49 1018.35 C 1605.68 1019.69 1575.55 1018.6 1546.58 1018.12 L 1552.64 1016.15 z" fill="rgb(255,255,255)" transform="translate(0,0)"></path>
<path d="M 1519.68 1016.9 C 1524.05 1016.16 1538.97 1015.8 1543.7 1015.88 C 1540.97 1016.5 1539.06 1017.06 1536.36 1017.9 C 1530.29 1018.76 1502.05 1018.4 1495.59 1017.87 C 1503.96 1016.67 1511.39 1017.24 1519.68 1016.9 z" fill="rgb(230,140,75)" transform="translate(0,0)"></path>
<path d="M 1543.7 1015.88 C 1546.68 1016.02 1549.65 1016.05 1552.64 1016.15 L 1546.58 1018.12 C 1543.1 1018.18 1539.83 1018.02 1536.36 1017.9 C 1539.06 1017.06 1540.97 1016.5 1543.7 1015.88 z" fill="rgb(250,190,174)" transform="translate(0,0)"></path>
<path d="M 570.197 564.692 C 572.237 565.947 576.543 569.683 578.331 571.349 C 608.74 599.699 637.425 629.899 666.976 659.008 C 682.028 673.747 696.998 688.569 711.886 703.474 C 723.561 715.176 752.995 737.242 734.408 754.903 C 728.776 760.254 724.573 760.982 716.987 760.998 C 703.911 754.251 659.526 706.254 646.246 692.762 L 545.586 591.015 C 551.381 583.533 563.243 572.184 570.197 564.692 z" fill="rgb(217,123,63)" transform="translate(0,0)"></path>
<path d="M 718.226 1320.02 C 732.987 1319.53 738.248 1327.16 741.211 1340.32 C 740.393 1343.25 739.429 1346.24 738.159 1349.01 C 734.819 1356.29 599.874 1491.71 587.907 1502.31 C 582.131 1507.42 576.733 1511.05 569.518 1513.84 C 564.342 1509.48 552.265 1495.99 546.717 1490.21 C 579.865 1455.69 614.84 1421.47 648.331 1387.19 C 661.418 1373.79 705.645 1327.21 718.226 1320.02 z" fill="rgb(217,123,63)" transform="translate(0,0)"></path>
<path d="M 556.781 1020.55 C 574.084 1019.94 612.633 1013.16 611.396 1039.48 C 610.457 1059.48 590.337 1057.3 575.908 1057.37 C 565.405 1057.41 555.042 1057.54 544.658 1057.61 L 422.5 1057.91 L 369.275 1058.12 L 369.988 1022.13 C 430.906 1021.52 496.287 1022.42 556.781 1020.55 z" fill="rgb(217,123,63)" transform="translate(0,0)"></path>
<path d="M 843.651 851.053 C 846.234 850.956 853.867 851.269 855.788 852.795 C 885.965 876.748 912.965 906.957 941.132 933.416 C 956.398 947.757 953.177 966.846 932.955 974.354 C 920.223 975.224 915.496 969.962 907.206 961.27 C 883.477 936.39 857.556 913.758 833.867 888.868 C 823.39 877.859 824.103 869.374 831.491 856.522 C 836.63 853.485 837.968 852.927 843.651 851.053 z" fill="rgb(217,123,63)" transform="translate(0,0)"></path>
<path d="M 920.932 1096.16 C 923.487 1095.99 930.341 1095.41 932.358 1096.37 C 964.824 1111.89 943.318 1131.35 927.636 1146.22 C 903.638 1168.96 884.198 1189.62 860.19 1211.74 C 858.503 1213.3 855.445 1214.77 853.431 1215.73 C 848.894 1216.89 844.479 1217.04 839.965 1215.59 C 835.036 1213.99 830.498 1210.11 828.141 1205.51 C 825.313 1199.98 824.82 1192.46 827.132 1186.66 C 830.062 1179.31 903.327 1108.54 914.211 1100.02 C 916.264 1098.41 918.572 1097.24 920.932 1096.16 z" fill="rgb(217,123,63)" transform="translate(0,0)"></path>
<path d="M 1165.91 854.095 C 1176.18 852.467 1186.43 856.041 1191.16 865.875 C 1193.74 871.34 1194.03 877.613 1191.95 883.289 C 1187.7 894.769 1122.39 956.346 1109.49 968.954 C 1107.53 970.873 1103.95 972.776 1101.32 973.933 C 1097.86 974.587 1094.11 974.701 1090.65 974.018 C 1085.42 972.986 1080.82 969.555 1078.04 965.042 C 1074.67 959.575 1074.03 951.567 1075.93 945.498 C 1078.75 936.521 1145.19 870.134 1157.26 859.782 C 1159.94 857.476 1162.78 855.741 1165.91 854.095 z" fill="rgb(217,123,63)" transform="translate(0,0)"></path>
<path d="M 1095.52 1095.14 C 1103.25 1094.54 1107.72 1094.5 1113.46 1100.4 C 1131.91 1118.75 1149.76 1137.77 1168.11 1156.22 C 1183.98 1172.17 1219 1201.49 1180.73 1216.63 C 1158.95 1218.52 1136.58 1182.66 1119.95 1168.6 C 1108.22 1158.69 1087.83 1136.89 1079.72 1123.71 C 1072.91 1112.62 1084.69 1099.97 1095.52 1095.14 z" fill="rgb(217,123,63)" transform="translate(0,0)"></path>
<path d="M 1010.16 782.243 C 1013.95 782.129 1017.43 782.195 1021.11 783.245 C 1025.92 784.617 1030.77 787.381 1032.99 792.079 C 1035.23 796.844 1035.66 803.144 1035.97 808.385 C 1036.84 823.338 1036.98 908.925 1033.02 918.276 C 1030.21 924.901 1024.04 928.21 1017.81 930.976 C 995.554 931.102 991.381 919.332 991.926 899.521 C 992.787 868.206 991.782 836.77 992.549 805.466 C 992.854 793.028 997.597 785.473 1010.16 782.243 z" fill="rgb(217,123,63)" transform="translate(0,0)"></path>
<path d="M 1008.28 1139.1 C 1012.97 1138.81 1017.79 1138.63 1022.33 1140.01 C 1027.22 1141.5 1031.74 1144.61 1034.03 1149.29 C 1038.55 1158.47 1038.68 1261.48 1034.8 1271.87 C 1032.33 1278.5 1025.97 1281.81 1019.88 1284.43 C 1004.56 1287.16 993.102 1277.22 993.263 1261.62 C 993.634 1225.61 990.565 1188.85 993.212 1153.04 C 993.624 1147.47 1003.9 1141.5 1008.28 1139.1 z" fill="rgb(217,123,63)" transform="translate(0,0)"></path>
<path d="M 1176.39 1014.5 C 1189.51 1014.28 1245.58 1011.32 1253.92 1020.19 C 1273.58 1041.12 1255.68 1059.64 1229.39 1058.03 C 1223.21 1057.65 1204.76 1058.03 1196.75 1058 C 1174.18 1057.96 1150.68 1059.1 1128.4 1056.77 C 1113.53 1055.21 1108.87 1030.44 1118.75 1021.88 C 1130.79 1011.45 1160.36 1014.66 1176.39 1014.5 z" fill="rgb(217,123,63)" transform="translate(0,0)"></path>
<path d="M 787.12 1014.48 C 806.941 1014 828.095 1014.52 847.999 1014.4 C 858.043 1014.34 881.098 1013.86 889.596 1015.6 C 893.219 1016.37 896.588 1018.05 899.388 1020.47 C 914.392 1033.49 905.092 1057.71 881.25 1057.92 L 814.55 1058.39 C 803.192 1058.47 792.809 1058.64 780.904 1058.05 C 759.947 1057.03 754.039 1036.61 765.663 1021.15 C 770.008 1015.37 780.2 1014.9 787.12 1014.48 z" fill="rgb(217,123,63)" transform="translate(0,0)"></path>
<path d="M 420.286 786.811 C 420.704 786.815 421.123 786.788 421.539 786.822 C 429.522 787.479 512.77 828.2 516.696 833.495 C 518.011 835.268 518.786 838.144 518.404 840.318 C 517.665 844.522 514.487 846.249 511.101 848.133 C 497.205 847.85 429.993 810.85 414.817 802.548 C 408.4 799.038 415.12 790.217 420.286 786.811 z" fill="rgb(217,123,63)" transform="translate(0,0)"></path>
<path d="M 507.743 1242.02 C 509.35 1242.12 509.407 1242.06 510.711 1242.31 C 513.732 1242.89 516.288 1243.82 517.766 1246.78 C 519.193 1249.64 519.302 1253.84 517.791 1256.66 C 514.246 1263.29 438.972 1293.68 425.879 1298.9 C 414.524 1299.34 410.995 1285.44 421.905 1279.98 C 427.046 1277.25 432.625 1274.66 438.06 1272.5 C 461.458 1263.21 484.335 1251.05 507.743 1242.02 z" fill="rgb(217,123,63)" transform="translate(0,0)"></path>
<path d="M 747.443 441.868 C 750.61 442.004 756.244 441.65 758.188 444.894 C 762.641 452.326 765.669 461.569 768.748 469.727 C 775.183 487.562 783.218 504.641 790.773 521.99 C 793.45 528.138 789.415 532.405 784.95 535.285 C 783.8 535.277 782.642 535.293 781.493 535.255 C 779.074 535.174 776.634 534.379 775.075 532.414 C 770.881 527.13 741.349 455.236 741.986 449.995 C 742.452 446.153 744.547 444.109 747.443 441.868 z" fill="rgb(217,123,63)" transform="translate(0,0)"></path>
<path d="M 973.69 380.137 C 984.885 378.938 990.391 382.507 989.646 394.5 C 988.771 408.562 995.637 433.969 986.516 444.529 C 965.306 446.958 973.01 424.572 970.858 410.5 C 969.77 403.388 968.322 387.34 972.631 381.597 L 973.69 380.137 z" fill="rgb(217,123,63)" transform="translate(0,0)"></path>
<path d="M 417.656 1110.4 C 433.757 1108.68 433.871 1125.71 425.339 1128.52 C 418.837 1130.66 392.385 1134.6 385.029 1135.64 C 373.285 1137.42 367.498 1128.52 373.321 1120.29 C 376.982 1115.11 410.973 1111.18 417.656 1110.4 z" fill="rgb(217,123,63)" transform="translate(0,0)"></path>
<path d="M 898.967 394.932 C 911.336 395.71 912.329 405.466 912.862 417.011 C 913.576 432.49 923.169 446.03 910.098 456.298 C 903.118 455.172 899.607 454.518 898.145 446.995 C 896.089 436.418 894.561 425.674 893.091 414.995 C 892.216 408.633 890.186 400.931 896.366 396.686 L 898.967 394.932 z" fill="rgb(217,123,63)" transform="translate(0,0)"></path>
<path d="M 538.532 1396.76 C 547.306 1397.11 552.783 1403.34 550.881 1409.54 C 549.527 1413.96 515.971 1438.94 511.748 1441.49 C 500.296 1441.65 495.697 1430.31 502.954 1424.5 C 514.168 1415.53 526.923 1405.07 538.532 1396.76 z" fill="rgb(217,123,63)" transform="translate(0,0)"></path>
<path d="M 378.812 948.975 C 392.072 949.235 405.863 953.515 419.014 954.896 C 432.523 956.313 436.318 966.97 424.674 974.762 L 419.498 974.15 C 407.797 972.839 395.109 971.158 383.494 969.21 C 369.966 966.942 368.851 957.168 378.812 948.975 z" fill="rgb(217,123,63)" transform="translate(0,0)"></path>
<path d="M 493.848 1330.69 C 497.221 1331.22 499.978 1332.08 502.198 1334.87 C 510.841 1345.7 493.978 1352.86 487.237 1358.28 C 479.895 1364.19 472.925 1369.31 464.513 1373.56 C 456.452 1372.78 450.639 1367.2 453.335 1361 C 456.408 1353.94 488.088 1334.28 493.848 1330.69 z" fill="rgb(217,123,63)" transform="translate(0,0)"></path>
<path d="M 614.097 524.992 C 629.423 523.483 631.687 535.948 641.35 547.336 C 650.676 558.327 658.413 563.209 649.103 574.489 C 635.777 577.815 629.573 563.732 622.277 553.793 C 613.884 542.358 604.562 536.91 614.097 524.992 z" fill="rgb(217,123,63)" transform="translate(0,0)"></path>
<path d="M 498.943 641.957 C 513.591 641.231 522.605 657.696 534.826 665.546 C 545.34 672.299 547.736 676.44 539.331 686.566 C 525.276 687.813 514.379 669.942 501.896 662.84 C 492.623 657.564 490.218 649.671 498.943 641.957 z" fill="rgb(217,123,63)" transform="translate(0,0)"></path>
<path d="M 391.54 866.857 C 402.265 866.408 406.499 869.611 416.526 871.747 C 427.517 874.089 459.105 879.226 439.433 895.828 C 433.307 895.879 427.885 893.857 421.984 892.332 L 417.986 891.301 L 413.994 890.298 C 402.838 887.584 375.433 883.484 391.54 866.857 z" fill="rgb(217,123,63)" transform="translate(0,0)"></path>
<path d="M 819.071 413.099 C 832.092 413.146 832.005 415.716 834.831 428.517 L 835.839 433.017 L 836.803 437.516 C 839.453 451.525 846.785 459.962 836.821 470.981 C 828.498 470.867 825.21 470.73 823.228 462.492 L 822.295 458.456 C 821.926 456.837 821.502 455.093 821.153 453.485 L 820.265 449.476 C 817.834 438.693 809.998 421.093 819.071 413.099 z" fill="rgb(217,123,63)" transform="translate(0,0)"></path>
<path d="M 453.994 710.788 C 458.18 710.534 463.417 710.689 466.042 714.091 C 474.122 724.56 516.203 736.733 495.414 752.363 C 482.801 754.278 477.531 743.22 466.612 736.405 C 457.84 730.93 442.031 723.448 452.851 712.046 L 453.994 710.788 z" fill="rgb(217,123,63)" transform="translate(0,0)"></path>
<path d="M 435.334 1187.1 C 437.131 1187.24 437.249 1187.24 438.997 1187.96 C 441.698 1189.06 443.799 1191.26 444.769 1194.02 C 447.812 1202.88 437.766 1206.17 431.48 1207.77 L 427.48 1208.79 L 423.48 1209.76 C 414.601 1211.91 406.24 1214.68 397.515 1216.91 C 389.865 1215.35 385.496 1206.99 388.952 1202.96 C 394.582 1196.41 427.199 1189.09 435.334 1187.1 z" fill="rgb(217,123,63)" transform="translate(0,0)"></path>
<path d="M 680.089 477.581 C 694.938 477.41 701.154 500.865 710.611 511.356 C 716.776 518.194 713.987 523.626 707.874 529.157 C 690.887 528.022 690.021 509.259 679.023 497.48 C 671.771 489.712 672.274 484.226 680.089 477.581 z" fill="rgb(217,123,63)" transform="translate(0,0)"></path>
<metadata><recraft-signature>{"signed_by": "recraft", "signature_b64": "nGi2UUOg2Me+2sljmyXtnlzSufFIx2EZKCVfCYzMHHILdy3MTkX0UqUPuESQ757hnuAzx2nQQlHyIhrlDNaPDw==", "signing_algo": "Ed25519", "generation_timestamp": 1772101050, "identifier": "806272a6-60a6-4d24-851c-0a59201ad9ce"}</recraft-signature></metadata></svg>