<svg xmlns="http://www.w3.org/2000/svg" height="1024" preserveAspectRatio="none" style="display: block;" version="1.1" viewBox="0 0 2048 2048" width="1024">
<path d="M 0 0 L 2048 0 L 2048 2048 L 0 2048 L 0 0 z" fill="rgb(255,255,255)" transform="translate(0,0)"></path>
<path d="M 1014.84 939.449 C 1018.25 845.172 1018.77 750.474 1018.95 656.134 C 1018.96 651.672 1019.85 648.26 1022.01 644.432 C 1024.99 642.422 1023.4 642.75 1026.94 643.422 C 1032.12 647.971 1030.2 681.906 1030.28 689.855 C 1030.69 721.947 1030.92 754.041 1030.96 786.135 C 1031.15 845.488 1033.02 905.96 1033.02 964.81 L 1033.64 965.544 C 1034.26 966.312 1034.6 966.515 1035.59 966.547 C 1043.68 929.056 1053.85 890.83 1061.98 853.24 C 1063.52 846.079 1064.07 835.117 1068.59 829.486 C 1072.22 829.672 1070.65 829.05 1073.42 831.457 C 1075.96 838.556 1072.55 845.57 1071.35 852.585 C 1065.07 889.527 1055.48 928.777 1051.09 965.772 C 1070.09 917.291 1090.08 868.662 1110.99 820.99 C 1116.17 809.191 1135.15 760.58 1141.1 754.067 C 1144.61 752.985 1142.87 752.984 1146.5 754.335 C 1149.51 759.228 1142.75 770.763 1140.31 776.509 L 1121.78 819.412 C 1101.91 865.262 1080.21 910.345 1060.38 956.232 C 1056.86 964.374 1053.18 972.578 1049.29 980.549 C 1064.74 963.325 1110.3 868.552 1120.46 863.485 L 1122.24 864.189 C 1123.57 869.686 1120.41 872.281 1117.82 876.935 C 1097.21 913.853 1071.77 950.539 1051.87 987.569 L 1053.07 986.587 C 1071.35 971.546 1105.63 934.721 1123.32 916.808 C 1158.57 881.382 1194.15 846.28 1230.04 811.509 L 1260.94 781.003 C 1266.9 775.098 1282 755.872 1290 762.817 C 1290.59 764.7 1291.35 766.285 1289.6 768.243 C 1277.04 782.291 1259.43 798.309 1246.27 811.404 L 1125.67 931.475 C 1109.79 947.313 1087.91 967.211 1072.98 983.804 C 1069.5 986.806 1066.24 989.62 1062.89 992.795 C 1066.45 990.887 1073.03 987.59 1076.27 985.577 C 1106.7 969.708 1135.39 950.284 1164.8 932.653 C 1172.2 928.214 1188.3 915.818 1195.82 915.826 L 1197.45 916.946 C 1196.51 920.968 1194.12 922.619 1190.59 924.708 C 1157.52 944.295 1124.71 964.349 1091.7 984.044 C 1083.09 989.175 1073.46 994.657 1065.49 1000.58 C 1087.35 993.57 1111.99 982.934 1133.57 974.256 C 1171.96 958.577 1210.53 943.312 1249.25 928.463 C 1259.41 924.611 1290.08 908.85 1298.45 912.221 C 1300.21 914.937 1299.85 913.46 1299.33 916.852 C 1295.68 921.023 1237.37 943.408 1226.65 947.685 C 1175.58 967.602 1124.78 988.199 1074.25 1009.47 L 1071.32 1010.83 L 1071.96 1011.69 C 1074.86 1011.88 1075.63 1012.08 1078.51 1011.51 C 1108.87 1007.54 1139.07 1002.48 1169.07 996.357 C 1178.86 994.442 1208.58 986.709 1216.8 988.58 C 1219.49 991.083 1218.64 989.526 1218.88 993.674 C 1215.73 998.05 1208 998.24 1203.06 999.404 C 1170.18 1007.15 1136.94 1013.47 1103.73 1019.65 L 1099.05 1019.84 C 1098.06 1020.74 1097.05 1021.62 1096.04 1022.49 L 1104.01 1022.03 L 1308.83 1022.25 C 1324.52 1022.49 1340.21 1022.48 1355.9 1022.23 C 1366.28 1022.07 1389.87 1020.22 1398.02 1024.77 L 1399.32 1026.84 C 1398.32 1030.31 1399.21 1028.89 1396.68 1031.32 C 1389.43 1033.09 1376.54 1032.05 1368.56 1032.16 L 1300.25 1033.06 C 1237.28 1033.28 1167.38 1033.51 1104.75 1036.29 C 1100.39 1039.46 1083.15 1034.82 1082.17 1038.72 C 1119 1047.51 1155.97 1055.86 1192.76 1064.83 C 1201.38 1066.93 1212.06 1066.73 1219.46 1071.9 L 1220.32 1073.78 L 1219.19 1076.05 C 1212.35 1078.3 1120.56 1053.5 1106.54 1052.16 C 1102.92 1051.81 1082.81 1046.37 1078.11 1044.99 L 1077.1 1046.88 C 1126.02 1066.99 1173.78 1087.59 1223.57 1105.57 C 1234.08 1109.37 1294.58 1131.25 1299.98 1135.77 C 1301.04 1138.82 1300.86 1137.18 1299.6 1140.88 C 1295.92 1142.88 1290.2 1141.21 1286.5 1139.79 C 1213.34 1111.69 1137.15 1085.49 1065.7 1053.47 C 1076.32 1061.76 1180.82 1137.34 1183.23 1142 C 1182.93 1145.37 1183.49 1143.81 1180.99 1146.64 C 1180.37 1146.71 1179.74 1146.94 1179.12 1146.86 C 1174.73 1146.29 1086.84 1074.62 1072.96 1065.61 L 1069 1065.44 L 1069.07 1065.84 C 1099.45 1095.29 1129.84 1124.57 1158.6 1155.6 C 1161.46 1158.69 1166.9 1158.41 1170.64 1159.65 C 1209.83 1200.37 1249.47 1240.9 1288.42 1281.84 C 1291.59 1285.17 1294.34 1288.79 1295.7 1291.86 C 1294.89 1294.76 1295.66 1293.48 1292.84 1295.47 C 1287.24 1295.47 1286.89 1293.65 1282.95 1289.7 C 1228.3 1234.86 1173.55 1180.34 1120.82 1123.64 C 1103.56 1105.08 1084.35 1087.85 1066.86 1069.15 L 1065.37 1070.42 C 1084.77 1100.9 1104.72 1131.4 1124.04 1161.93 C 1125.23 1163.81 1125.83 1165.92 1125.61 1168.15 L 1123.89 1169.81 C 1116.66 1169.08 1097.53 1136.41 1092.81 1129.22 L 1049.76 1064.03 C 1057.98 1091.01 1071.51 1121.68 1082.53 1148.04 L 1119.28 1237.13 C 1123.81 1247.96 1143.21 1288.57 1141.28 1298.14 L 1139.31 1299 C 1135.55 1296.47 1131.54 1292.09 1129.82 1287.92 C 1107.41 1233.95 1084.65 1180.03 1063.06 1125.71 C 1057.66 1112.13 1049.3 1086.88 1042.32 1075.46 C 1048.24 1103.78 1054.27 1132.59 1059.84 1160.98 C 1062.79 1176.02 1071.4 1206.16 1071.78 1220.07 C 1069.87 1222.05 1071.05 1221.32 1067.65 1221.48 C 1063.6 1217.64 1061.4 1197.22 1059.82 1190.18 C 1054.56 1166.7 1049.05 1143.23 1043.57 1119.8 C 1041.02 1109.12 1036.41 1086.8 1032.65 1077.09 C 1032 1073.24 1032.95 1074.11 1030.85 1072.52 C 1029.49 1078.43 1030.23 1096.86 1030.36 1103.72 C 1029.72 1127.68 1030.71 1156.26 1030.77 1180.72 C 1031.13 1232.74 1031.02 1284.76 1030.44 1336.79 C 1030.37 1348.22 1033.32 1398.14 1025.13 1402.41 C 1017.58 1399.77 1019.88 1381.48 1019.74 1374.12 C 1019.45 1356.6 1019.25 1339.07 1019.16 1321.55 C 1018.42 1273.45 1018.03 1225.34 1017.96 1177.23 C 1017.82 1144.49 1018.39 1100.02 1015.32 1067.93 C 1006.86 1114.46 994.663 1161.06 984.759 1207.35 C 983.858 1211.56 981.566 1223 977.242 1224.31 C 972.224 1218.4 983.585 1181.69 985.793 1172.16 L 1005.35 1084.16 L 1008.38 1068.53 C 1006.49 1072.64 1005.17 1076.03 1003.6 1080.28 C 977.943 1152.65 943.556 1224.67 915.654 1296.38 C 914.145 1300.26 912.576 1304.44 908.117 1304.75 C 906.149 1303.34 906.221 1303.98 905.534 1301.97 C 904.384 1298.61 906.186 1292.48 907.557 1289.19 C 916.105 1268.69 925.257 1248.19 934.06 1227.8 C 945.541 1200.52 956.844 1173.16 967.968 1145.73 C 973.127 1133.21 977.841 1121.66 982.444 1108.93 C 986.056 1098.93 991.574 1081.68 996.396 1072.46 L 995.067 1070.73 C 985.675 1086.39 926.425 1188.8 920.331 1191.87 L 918.181 1191.3 C 916.97 1186.72 919.753 1182.07 922.201 1177.96 C 943.057 1142.96 965.918 1107.54 985.913 1072.18 L 982.977 1070.93 C 968.05 1087.46 952.598 1102.77 937.321 1118.91 C 901.394 1157.55 864.801 1195.56 827.559 1232.93 C 811.967 1248.79 796.264 1264.3 781.372 1280.84 C 776.439 1286.32 767.796 1296.59 759.667 1295.81 L 758.631 1293.33 C 763.875 1283.7 826.587 1220.99 839.44 1207.94 C 881.89 1164.86 923.893 1117.04 967.041 1075.21 L 965.835 1072.25 C 929.601 1094.68 893.43 1119.38 856.597 1141.01 C 854.725 1142.11 852.246 1141.73 850.302 1140.96 L 850.491 1139.11 C 856.369 1131.75 914.596 1097.57 926.429 1090.21 C 942.778 1080.07 958.961 1069.65 974.972 1058.98 L 973.785 1056.3 L 842.029 1110 L 792.618 1130.51 C 784.091 1134.14 758.025 1147.47 748.287 1145.84 C 747 1145.63 746.934 1144.34 746.446 1143.01 C 749.404 1136.59 780.65 1125.25 788.503 1121.96 C 810.639 1112.44 832.893 1103.19 855.258 1094.22 C 893.012 1079.04 929.839 1062.73 967.943 1047.54 C 970.703 1046.61 975.795 1044.01 978.626 1042.67 L 962.069 1045.45 L 960.479 1045.9 C 929.871 1054.39 892.882 1056.9 861.917 1066.49 C 856.691 1068.11 849.056 1069.77 844.248 1066.99 L 843.8 1064.64 C 845.361 1062.58 846.351 1062.4 848.98 1061.93 C 889.01 1054.69 928.284 1044.92 967.835 1035.46 C 962.922 1032.68 948.595 1034.22 940.573 1033.15 C 911.629 1032.57 652.62 1034.52 647.564 1031.85 C 646.273 1028.29 646.181 1026.09 648.608 1023.2 C 654.375 1022.43 669.258 1022.83 676.016 1022.73 L 738.817 1021.95 C 813.249 1020.99 887.691 1021.01 962.122 1022.01 C 962.829 1021.66 964.874 1020.95 965.381 1020.44 C 965.45 1019.96 965.327 1019.95 965.027 1019.34 C 922.089 1011.23 879.219 996.175 835.983 988.504 C 832.473 987.881 828.471 985.53 829.122 981.475 C 833.959 979.149 951.995 1006.43 970.09 1008.43 L 973.733 1006.71 C 932.466 989.578 886.551 970.79 844.62 955.525 L 786.382 934.769 C 780.064 932.514 751.401 923.733 750.046 917.941 C 751.32 914.339 750.174 915.481 753.143 913.983 C 758.443 913.978 784.973 924.059 791.282 926.28 C 855.483 948.56 918.966 972.857 981.637 999.136 C 969.721 989.422 955.125 979.729 942.762 970.147 C 917.053 950.222 891.246 931.039 864.746 912.175 C 863.519 909.622 863.705 910.943 864.324 908.059 L 866.394 907.403 C 877.154 910.021 961.168 977.967 977.833 989.118 L 979.482 987.66 C 968.747 977.718 894.524 913.018 893.846 906.539 L 894.664 905.989 C 901.348 907.951 976.707 978.595 992.576 989.786 C 987.398 980.476 981.469 971.603 974.849 963.256 C 965.225 951.005 910.689 891.553 909.111 882.845 C 908.812 881.196 909.046 881.615 910.29 880.169 L 912.871 880.033 C 917.418 883.342 927.406 895.728 931.626 900.709 C 945.578 916.979 959.225 933.509 972.559 950.29 C 979.331 958.901 988.158 971.75 995.148 979.455 L 995.861 980.227 C 969.445 906.01 937.197 834.532 907.564 761.628 C 906.65 759.379 907.849 758.518 909.001 756.896 C 914.021 754.869 916.668 758.673 918.65 763.104 C 925.117 777.57 930.092 792.59 936.444 807.148 C 960.157 860.415 982.317 914.359 1002.9 968.912 C 998.522 941.155 991.786 912.414 987.464 884.558 C 985.791 873.771 977.639 843.298 978.343 834.102 C 980.492 830.829 979.015 832.025 983.324 830.925 L 985.088 832.051 C 987.125 838.174 991.164 865.906 992.874 874.995 C 998.726 906.095 1006.04 936.052 1012.51 966.834 C 1015.31 961.93 1012.87 948.797 1014.84 939.449 z" fill="rgb(217,123,63)" transform="translate(0,0)"></path>
<path d="M 940.573 1033.15 C 943.871 1032.97 974.347 1032.49 975.362 1033.51 C 975.008 1034.83 968.938 1035.28 967.835 1035.46 C 962.922 1032.68 948.595 1034.22 940.573 1033.15 z" fill="rgb(247,175,159)" transform="translate(0,0)"></path>
<path d="M 1082.17 1038.72 C 1080.83 1038.51 1079.5 1038.29 1078.16 1038.06 L 1077.37 1037.1 L 1076.45 1037.35 C 1076.41 1037.18 1076.37 1037.01 1076.33 1036.84 C 1077.3 1035.58 1101.52 1036.11 1104.75 1036.29 C 1100.39 1039.46 1083.15 1034.82 1082.17 1038.72 z" fill="rgb(246,201,192)" transform="translate(0,0)"></path>
<path d="M 1012.51 966.834 C 1015.31 961.93 1012.87 948.797 1014.84 939.449 C 1015.04 946.275 1014.89 953.169 1014.78 960 C 1014.75 961.871 1015.82 971.654 1014.02 972.048 C 1012.94 971.245 1012.91 969.79 1012.75 968.564 L 1012.51 966.834 z" fill="rgb(246,201,192)" transform="translate(0,0)"></path>
<path d="M 992.675 1059.67 C 990.424 1065.07 989.251 1067.18 985.913 1072.18 L 982.977 1070.93 C 986.112 1067.19 989.484 1063.41 992.675 1059.67 z" fill="rgb(246,201,192)" transform="translate(0,0)"></path>
<path d="M 965.027 1019.34 C 966.459 1019.44 971.667 1019.86 972.869 1020.75 C 973.584 1022.49 963.005 1022.01 962.122 1022.01 C 962.829 1021.66 964.874 1020.95 965.381 1020.44 C 965.45 1019.96 965.327 1019.95 965.027 1019.34 z" fill="rgb(246,201,192)" transform="translate(0,0)"></path>
<path d="M 965.835 1072.25 C 967.719 1070.9 969.665 1069.62 971.696 1068.49 L 972.804 1069.04 L 972.261 1068.26 C 972.834 1068.09 972.498 1068.14 973.281 1068.23 C 973.985 1069.15 967.76 1074.53 967.041 1075.21 L 965.835 1072.25 z" fill="rgb(246,201,192)" transform="translate(0,0)"></path>
<path d="M 979.482 987.66 C 986.215 992.693 987.303 996.824 977.833 989.118 L 979.482 987.66 z" fill="rgb(246,201,192)" transform="translate(0,0)"></path>
<path d="M 1060.7 1062.4 C 1062.8 1064.45 1064.81 1066.41 1067 1068.37 L 1066.86 1069.15 L 1065.37 1070.42 C 1062.79 1067.73 1062.05 1065.73 1060.7 1062.4 z" fill="rgb(246,201,192)" transform="translate(0,0)"></path>
<path d="M 1033.02 964.81 L 1033.64 965.544 C 1034.26 966.312 1034.6 966.515 1035.59 966.547 C 1033.87 975.943 1033.02 971.301 1033.02 964.81 z" fill="rgb(246,201,192)" transform="translate(0,0)"></path>
<path d="M 973.785 1056.3 C 975.348 1055.7 979.674 1053.35 981.113 1054.44 C 981.063 1055.44 975.879 1058.37 974.972 1058.98 L 973.785 1056.3 z" fill="rgb(246,201,192)" transform="translate(0,0)"></path>
<path d="M 1064.69 1060.48 C 1068.15 1061.45 1070.19 1063.26 1072.96 1065.61 L 1069 1065.44 C 1067.03 1063.5 1066.37 1062.67 1064.69 1060.48 z" fill="rgb(246,201,192)" transform="translate(0,0)"></path>
<path d="M 1077.1 1046.88 C 1068.28 1043.85 1070.37 1042.68 1078.11 1044.99 L 1077.1 1046.88 z" fill="rgb(246,201,192)" transform="translate(0,0)"></path>
<path d="M 973.733 1006.71 C 975.151 1006.96 975.703 1007.19 976.95 1007.71 C 977.374 1008.31 977.312 1008.11 977.346 1008.39 C 975.874 1009.42 971.768 1008.63 970.09 1008.43 L 973.733 1006.71 z" fill="rgb(247,175,159)" transform="translate(0,0)"></path>
<path d="M 1096.04 1022.49 C 1094.93 1022.26 1093.49 1022.25 1092.58 1021.5 C 1093.11 1020.76 1097.99 1020.03 1099.05 1019.84 C 1098.06 1020.74 1097.05 1021.62 1096.04 1022.49 z" fill="rgb(230,140,75)" transform="translate(0,0)"></path>
<path d="M 995.067 1070.73 C 995.622 1069.54 995.972 1068.38 997.062 1067.63 C 997.402 1067.6 997.265 1067.56 997.491 1067.71 C 998.207 1069.08 996.876 1071.24 996.396 1072.46 L 995.067 1070.73 z" fill="rgb(247,175,159)" transform="translate(0,0)"></path>
<path d="M 382.419 904.015 C 429.128 912.36 475.931 920.169 522.819 927.44 C 518.719 950.367 516.173 973.545 515.199 996.815 C 514.798 1004.98 515.18 1022.98 514.21 1029.38 L 512.19 1029.95 C 465.612 1030.18 419.357 1033.22 372.943 1033.1 C 372.461 985.862 374.138 950.81 382.419 904.015 z" fill="rgb(217,123,63)" transform="translate(0,0)"></path>
<path d="M 422.744 770.162 C 464.995 787.878 510.911 807.869 553.478 824.064 C 539.961 859.097 533.619 880.069 524.632 916.632 C 522.011 918.077 521.523 917.28 517.756 916.68 C 497.453 913.477 477.177 910.103 456.93 906.559 C 432.963 902.153 408.248 896.941 384.237 893.521 C 388.391 861.766 409.592 799.715 422.744 770.162 z" fill="rgb(217,123,63)" transform="translate(0,0)"></path>
<path d="M 460.981 1041.45 C 478.333 1040.98 495.693 1040.87 513.05 1041.12 C 513.061 1073.28 518.962 1111.74 525.667 1143.16 C 494.749 1149.48 463.775 1155.52 432.747 1161.28 L 389.68 1169.61 C 378.958 1128.95 373.381 1087.12 373.078 1045.08 C 400.44 1042.68 433.148 1042.36 460.981 1041.45 z" fill="rgb(217,123,63)" transform="translate(0,0)"></path>
<path d="M 815.933 402.01 L 817.269 402.373 C 820.777 408.044 829.969 436.933 832.534 444.599 L 861.826 531.84 C 826.754 545.975 805.125 555.641 771.272 573.897 L 760.498 556.632 C 739.924 523.328 719.401 487.608 698.496 455.09 C 737.279 432.54 774.211 417.25 815.933 402.01 z" fill="rgb(217,123,63)" transform="translate(0,0)"></path>
<path d="M 489.049 649.023 C 513.266 666.899 539.358 682.797 563.955 700.204 C 577.349 709.682 590.821 719.062 604.447 728.204 C 597.653 740.585 588.7 753.719 581.508 766.446 C 572.35 782.652 565.287 797.653 557.314 814.554 L 547.741 810.65 C 509.761 795.825 463.735 773.362 426.223 760.851 C 429.259 754.534 432.149 747.999 435.065 741.611 C 450.09 708.688 469.426 679.327 489.049 649.023 z" fill="rgb(217,123,63)" transform="translate(0,0)"></path>
<path d="M 689.318 460.847 L 690.386 461.043 C 693.433 464.074 706.469 486.267 709.569 491.451 C 726.927 520.471 745.354 549.959 761.574 579.618 C 728.986 600.061 711.691 614.768 681.737 639.337 L 672.675 629.365 C 646.894 602.012 611.193 564.97 587.666 536.977 C 620.061 507.449 652.571 484.446 689.318 460.847 z" fill="rgb(217,123,63)" transform="translate(0,0)"></path>
<path d="M 560.847 1246.94 C 563.197 1248.69 565.819 1255.02 567.329 1258 C 580.616 1284.19 595.398 1308.79 612.625 1332.57 L 539.968 1388.08 C 527.979 1397.21 513.31 1407.35 502.128 1416.88 L 498.138 1411.1 C 475.464 1379.04 452.869 1344.96 437.445 1308.66 L 560.847 1246.94 z" fill="rgb(217,123,63)" transform="translate(0,0)"></path>
<path d="M 579.234 544.999 C 588.898 553.307 603.149 569.392 612.316 579.195 C 632.95 601.578 653.853 623.711 675.022 645.59 C 669.392 652.699 656.522 664.887 649.619 672.298 C 635.59 687.357 622.604 703.354 610.751 720.179 L 598.566 711.675 C 564.418 687.321 530.028 663.307 495.403 639.637 C 521.881 604.884 547.142 575.124 579.234 544.999 z" fill="rgb(217,123,63)" transform="translate(0,0)"></path>
<path d="M 1177.69 1519.08 L 1179.47 1518.91 C 1181.55 1521.17 1220.86 1638.61 1225.25 1651.24 C 1194.46 1661.15 1162.94 1668.67 1130.99 1673.74 C 1121.17 1675.42 1111.33 1677.02 1101.47 1678.54 C 1100.02 1658.85 1095.98 1633.92 1093.46 1613.79 C 1090.43 1589.68 1087.61 1563.16 1083.78 1539.37 C 1108.8 1538.07 1153.86 1526.46 1177.69 1519.08 z" fill="rgb(217,123,63)" transform="translate(0,0)"></path>
<path d="M 979.411 1540.92 C 1017.7 1543.93 1036.83 1542.74 1074.74 1540.85 C 1075.31 1552.98 1077.51 1568.7 1078.83 1581.19 C 1082.31 1614.04 1086.63 1646.87 1090.44 1679.71 L 1073.25 1680.92 C 1028.59 1683.74 1005.05 1682.8 960.702 1679.6 C 968.797 1635.09 971.831 1586.06 979.411 1540.92 z" fill="rgb(217,123,63)" transform="translate(0,0)"></path>
<path d="M 873.3 1519.5 C 909.334 1529.33 933.18 1535.2 969.431 1540.37 C 962.396 1585.79 957.386 1632.73 950.608 1678.49 C 943.22 1677.27 935.342 1676.33 927.89 1675.3 C 900.099 1670.49 854.693 1661.7 828.237 1652.04 C 843.686 1611.65 859.446 1560.99 873.3 1519.5 z" fill="rgb(217,123,63)" transform="translate(0,0)"></path>
<path d="M 776.581 1477.4 C 808.358 1494.25 830.529 1504.17 864.56 1516.9 C 857.951 1537.53 849.563 1558.96 842.63 1579.66 C 834.976 1602.51 827.197 1626.19 818.384 1648.55 L 799.785 1642.18 C 762.249 1627.93 739.391 1615.13 703.595 1597.53 C 721.132 1571.03 736.022 1542.97 753.131 1516.17 C 761.224 1503.5 769.079 1490.43 776.581 1477.4 z" fill="rgb(217,123,63)" transform="translate(0,0)"></path>
<path d="M 1274.9 1475.92 C 1277.8 1477.08 1343.09 1586.9 1348.1 1596.4 C 1314.3 1615.27 1293.91 1625.41 1257.38 1640 C 1250.22 1642.87 1242.51 1645.62 1235.26 1648.36 C 1219.87 1603.97 1204.77 1559.48 1189.98 1514.88 C 1223 1503.31 1244.39 1493.28 1274.9 1475.92 z" fill="rgb(217,123,63)" transform="translate(0,0)"></path>
<path d="M 947.667 372.461 C 948.9 372.151 948.048 372.278 950.24 372.714 C 953.598 380.949 962.073 495.201 963.204 509.324 C 931.877 513.387 900.938 520.024 870.701 529.167 L 864.621 509.748 C 852.938 472.763 838.385 434.033 828.057 397.323 C 867.057 385.295 907.105 376.97 947.667 372.461 z" fill="rgb(217,123,63)" transform="translate(0,0)"></path>
<path d="M 691.966 1418.83 C 715.861 1438.58 741.256 1456.43 767.921 1472.23 C 750.719 1503.28 730.333 1533.42 712.371 1564.11 C 706.932 1573.4 700.875 1583.21 694.76 1592.02 C 689.689 1589.24 684.518 1585.9 679.575 1582.84 C 645.175 1559.95 625.863 1547.06 595.687 1519.42 C 624.776 1486.77 661.3 1450.16 691.966 1418.83 z" fill="rgb(217,123,63)" transform="translate(0,0)"></path>
<path d="M 526.104 1153.39 L 526.418 1153.47 C 528.939 1156.06 530.405 1162.62 531.582 1166.48 C 539.063 1190.99 546.928 1214.2 557.939 1237.41 C 544.071 1244.14 437.073 1297.94 432.304 1297.33 L 430.439 1294.33 C 413.076 1250.37 402.86 1226.11 391.507 1180.07 C 414.219 1174.8 439.083 1170.57 462.019 1165.93 C 482.876 1161.72 505.225 1156.82 526.104 1153.39 z" fill="rgb(217,123,63)" transform="translate(0,0)"></path>
<path d="M 617.869 1340.75 C 620.03 1341.97 634.606 1360.28 637.682 1363.89 C 652.183 1380.85 667.692 1396.91 684.124 1412 C 653.133 1445.08 618.583 1479.44 586.724 1511.85 L 581.382 1506.89 C 550.784 1478.19 533.923 1458.39 507.635 1425.43 C 518.763 1418.29 534.818 1405.14 545.597 1396.74 C 569.532 1377.88 593.623 1359.21 617.869 1340.75 z" fill="rgb(217,123,63)" transform="translate(0,0)"></path>
<path d="M 1000.37 367.426 C 1023.07 366.28 1059.8 369.052 1083.42 370.191 C 1081.55 410.427 1073.43 466.312 1069.02 507.743 C 1063.4 507.004 1056.13 506.683 1050.35 506.269 C 1025.29 505.405 1000.2 506.044 975.218 508.184 C 973.413 463.965 967.15 414.749 964.619 369.804 C 976.081 368.595 988.779 368.106 1000.37 367.426 z" fill="rgb(217,123,63)" transform="translate(0,0)"></path>
<path d="M 1356.27 1418.71 C 1362.19 1420.71 1436.77 1509.95 1449.81 1523.45 C 1420.07 1548.26 1404.02 1560.39 1371.5 1581.92 L 1358.39 1590.29 C 1334 1550.97 1309.29 1508.86 1284.78 1470.35 C 1311.91 1454.58 1332.05 1438.31 1356.27 1418.71 z" fill="rgb(217,123,63)" transform="translate(0,0)"></path>
<path d="M 1425.11 1346.55 C 1428.03 1347.78 1454.55 1368.31 1458.73 1371.42 C 1485.16 1391.1 1511.6 1410.64 1537.64 1430.83 C 1521.06 1452.81 1492.1 1484.01 1471.91 1502.92 L 1463.34 1511.26 C 1434.33 1479.35 1397.21 1438.75 1367.15 1408.64 C 1372.03 1403.04 1383.38 1392.86 1389.14 1387.14 C 1402.08 1374.48 1414.1 1360.92 1425.11 1346.55 z" fill="rgb(217,123,63)" transform="translate(0,0)"></path>
<path d="M 1482.35 1260.39 C 1502.38 1269.11 1523.63 1280.04 1543.6 1289.37 C 1564.34 1299.06 1587.63 1309.17 1607.59 1319.94 C 1594.88 1347.79 1573.64 1381.37 1556.71 1406.64 C 1555.55 1408.6 1554.65 1409.63 1553.22 1411.41 C 1547.41 1411.43 1449.52 1340.96 1436.43 1331.66 C 1455.64 1304.78 1465.79 1288.74 1482.35 1260.39 z" fill="rgb(217,123,63)" transform="translate(0,0)"></path>
<path d="M 1522.7 1161.24 C 1564.71 1171.78 1613.13 1185.72 1654.77 1198.4 C 1645.12 1234.63 1634.95 1261.89 1619.52 1295.77 L 1618.58 1297.62 C 1618.06 1297.8 1617.55 1297.99 1617.03 1298.17 C 1581.98 1284.28 1523.76 1254.32 1490.89 1242.57 C 1503.69 1213.2 1512.61 1191.73 1522.7 1161.24 z" fill="rgb(217,123,63)" transform="translate(0,0)"></path>
<path d="M 1111.03 372.737 C 1143.57 377.268 1186.28 386.349 1217.14 397.781 C 1212.17 410.962 1207.4 428.256 1202.98 442.064 C 1195.81 463.978 1188.43 485.828 1180.87 507.611 L 1174.13 527.571 C 1149.11 519.369 1118.34 513.065 1092.3 509.129 C 1095.89 492.8 1097.95 472.772 1100.08 455.937 C 1103.59 428.185 1107.24 400.451 1111.03 372.737 z" fill="rgb(217,123,63)" transform="translate(0,0)"></path>
<path d="M 1369.19 467.523 C 1392.87 479.514 1436.42 512.294 1455.26 531.485 C 1430.12 563.557 1401.96 590.945 1376.03 622.242 L 1365.89 633.58 C 1348.95 618.955 1317.54 595.471 1298.39 583.29 C 1321.5 544.404 1345.1 505.812 1369.19 467.523 z" fill="rgb(217,123,63)" transform="translate(0,0)"></path>
<path d="M 1245.06 406.226 C 1273.24 414.693 1315.82 436.535 1341.35 450.731 C 1326.84 481.879 1301 523.336 1283.04 553.513 L 1274.35 568.943 C 1246.12 555.371 1229.51 547.005 1200.16 535.466 C 1215.2 492.13 1229.53 449.471 1245.06 406.226 z" fill="rgb(217,123,63)" transform="translate(0,0)"></path>
<path d="M 1567.76 660.776 C 1577.83 669.338 1615.89 740.085 1620.14 753.509 C 1583.44 769.87 1540.47 787.358 1505.32 804.399 L 1496.61 808.594 C 1481.36 779.512 1475.12 764.941 1456.25 736.966 C 1489.98 712.568 1532.57 683.331 1567.76 660.776 z" fill="rgb(217,123,63)" transform="translate(0,0)"></path>
<path d="M 1480.5 553.776 C 1494.74 560.894 1539.45 617.637 1550.27 632.089 C 1518.07 656.663 1482.45 681.435 1449.5 705.429 L 1439.81 712.785 C 1421.06 693.057 1408.3 672.707 1386.03 652.866 C 1408.26 627.661 1432.89 603.712 1455.69 578.971 C 1463.3 570.713 1472.17 561.136 1480.5 553.776 z" fill="rgb(217,123,63)" transform="translate(0,0)"></path>
<path d="M 1631.96 785.123 C 1641.55 795.217 1661.1 870.758 1663.65 886.525 C 1653.96 889.226 1633.88 892.53 1623.3 894.645 C 1595.33 900.366 1567.3 905.82 1539.21 911.007 C 1529.22 913.263 1530.92 910.309 1528.89 900.704 C 1524.2 878.584 1515.88 857.318 1507.95 836.192 L 1631.96 785.123 z" fill="rgb(217,123,63)" transform="translate(0,0)"></path>
<path d="M 1540.3 1069.59 C 1586.01 1070.65 1631.7 1072.37 1677.35 1074.75 C 1675.66 1108.54 1670.51 1137.08 1662.95 1169.79 L 1662.55 1170.94 C 1657.49 1174.25 1545.76 1142.15 1528.28 1139.19 C 1533.65 1113.72 1536.94 1095.35 1540.3 1069.59 z" fill="rgb(217,123,63)" transform="translate(0,0)"></path>
<path d="M 758.418 758.457 C 764.81 762.146 790.025 789.321 796.909 796.284 C 817.847 817.12 838.496 838.246 858.849 859.655 C 867.1 868.305 879.832 880.737 886.736 889.853 C 886.724 892.793 886.239 892.332 883.861 895.24 C 873.829 887.118 862.151 874.609 852.703 865.207 C 835.095 847.765 817.619 830.19 800.278 812.483 C 792.017 804.05 760.662 773.149 754.583 764.8 C 755.192 761.245 755.684 761.699 758.418 758.457 z" fill="rgb(217,123,63)" transform="translate(0,0)"></path>
<metadata><recraft-signature>{"signed_by": "recraft", "signature_b64": "LlP6dvjLJ4kGVvI5sycUdWf7HGesBQfr1jZQEvntiYH3aAFzHhugctnSR/TD/A9ekXq3a5i2e82FantJUwsaDQ==", "signing_algo": "Ed25519", "generation_timestamp": 1772101049, "identifier": "dfee0e27-97d9-4fed-9c74-fac799cef643"}</recraft-signature></metadata></svg>