<svg xmlns="http://www.w3.org/2000/svg" height="1024" preserveAspectRatio="none" style="display: block;" version="1.1" viewBox="0 0 2048 2048" width="1024">
<path d="M 0 0 L 2048 0 L 2048 2048 L 0 2048 L 0 0 z" fill="rgb(255,255,255)" transform="translate(0,0)"></path>
<path d="M 1030.73 528.307 C 1075.56 525.065 1087.97 573.019 1101.24 606.84 C 1138.85 702.679 1150.52 823.291 1124.09 923.527 C 1183.75 878.696 1235.41 828.995 1273.55 764.011 C 1281.68 749.976 1289.19 735.589 1296.06 720.893 C 1303.24 705.794 1309.15 687.264 1318.98 673.935 C 1327.89 661.852 1347.08 654.638 1361.9 656.275 C 1374.72 657.817 1386.39 664.42 1394.3 674.613 C 1419.12 706.112 1394.37 748.539 1379.54 779.327 C 1345.06 851.928 1295.51 916.353 1234.2 968.313 C 1213.94 985.28 1194.73 997.457 1174.85 1013.17 C 1261.99 1024.17 1340.04 1017.78 1422.13 986.635 C 1443.86 978.39 1471.59 961.777 1494.74 966.368 C 1521.36 971.65 1540.16 1000.93 1533.21 1027.52 C 1525.47 1057.92 1486.85 1068.45 1461.74 1080.39 C 1383.52 1113.37 1296.05 1128.07 1211.37 1121.22 C 1184.37 1119.03 1161.98 1117.64 1135.48 1110.89 C 1194.06 1188.25 1274.59 1248.57 1363.76 1286.18 C 1392.21 1298.19 1419.8 1307.59 1415.23 1346.56 C 1413.77 1359.29 1407.12 1370.87 1396.85 1378.55 C 1367.2 1401.19 1321.24 1374.74 1291.72 1362.24 C 1190.2 1319.24 1109.56 1247.46 1043.49 1160.06 C 1033.98 1239.72 1038.26 1307.6 1063.18 1383.76 C 1067.47 1397.09 1072.23 1410.26 1077.44 1423.26 C 1086.35 1445.66 1098.58 1466.76 1084.28 1490.06 C 1075.64 1504.14 1066.57 1509.34 1051.29 1513.4 C 1031.4 1515.47 1013.09 1508.91 1002.48 1491.58 C 990.715 1472.36 981.325 1448.93 973.554 1427.88 C 936.779 1329.7 928.226 1223.19 948.864 1120.41 C 943.991 1124.28 938.753 1128.21 933.756 1131.9 C 860.535 1185.99 804.506 1259.55 767.818 1342.59 C 763.871 1350.06 760.936 1359.78 756.362 1366.78 C 746.132 1382.42 725.968 1388.2 708.968 1385.23 C 695.545 1382.91 683.685 1375.13 676.204 1363.74 C 657.103 1334.4 681.549 1292.65 695.04 1264.91 C 744.714 1162.8 817.527 1088.1 912.058 1026.48 C 845.931 1018.35 781.788 1015.96 716.57 1031.47 C 690.714 1037.34 665.52 1045 640.691 1054.29 C 623.451 1060.74 604.714 1073.47 585.764 1071.73 C 572.05 1070.59 559.414 1063.84 550.833 1053.08 C 533.917 1031.46 538.191 998.366 561.463 983.048 C 583.199 968.741 608.379 959.539 632.663 950.585 C 733.127 913.542 830.091 911.525 934.881 927.886 C 900.476 876.997 827.691 817.177 774.972 787.172 C 761.446 779.454 747.591 772.326 733.448 765.806 C 701.786 751.039 658.677 742.294 667.413 695.939 C 672.813 667.289 700.907 651.745 728.438 658.277 C 751.292 663.7 775.458 674.128 796.491 684.707 C 889.802 732.218 969.383 802.847 1027.64 889.855 C 1040.19 801.723 1038.15 742.714 1012.58 656.054 C 1008.48 642.529 1003.82 629.182 998.6 616.051 C 989.485 592.485 978.694 570.985 995.705 547.438 C 1004.69 535.003 1016.13 530.437 1030.73 528.307 z" fill="rgb(217,123,63)" transform="translate(0,0)"></path>
<path d="M 1028.27 956.208 C 1065.87 950.712 1100.88 976.538 1106.73 1014.09 C 1112.58 1051.64 1087.08 1086.88 1049.59 1093.09 C 1011.6 1099.37 975.774 1073.46 969.848 1035.41 C 963.921 997.356 990.168 961.777 1028.27 956.208 z" fill="rgb(255,255,255)" transform="translate(0,0)"></path>
<path d="M 1075.02 247.144 C 1096.4 245.542 1145.89 245.436 1145.13 275.604 C 1144.09 316.151 1138.99 361.358 1133.91 401.829 C 1133.03 408.799 1120.58 416.659 1114.43 419.736 C 1101.33 423.466 1077.64 421.332 1064.62 417.579 C 1053.1 414.256 1045.35 403.355 1045.43 391.265 C 1045.56 372.478 1047.47 353.349 1048.48 334.515 C 1049.67 315.78 1049.73 296.983 1051.34 278.276 C 1052.75 261.929 1059.95 253.202 1075.02 247.144 z" fill="rgb(217,123,63)" transform="translate(0,0)"></path>
<path d="M 1198.7 263.162 C 1212.4 262.19 1228.87 267.614 1242.36 270.78 C 1258.39 274.968 1269.02 290.409 1265.56 306.977 C 1257.79 344.22 1246.92 381.492 1237.75 418.46 C 1234.82 430.254 1228.01 434.97 1217.71 439.768 C 1203.55 441.278 1181.74 435.556 1168.11 430.868 C 1161.41 428.565 1154.36 421.256 1152.2 414.511 C 1150.55 409.341 1149.98 403.426 1150.95 397.856 C 1154.71 376.27 1159.78 355.263 1164.73 333.802 C 1168.62 316.9 1170.52 295.397 1176.47 279.522 C 1179.84 270.536 1190.1 265.929 1198.7 263.162 z" fill="rgb(217,123,63)" transform="translate(0,0)"></path>
<path d="M 868.818 262.357 C 879.616 261.281 897.447 266.774 900.811 277.908 C 912.038 315.466 919.297 354.988 927.916 393.292 C 936.952 433.447 900.971 433.907 872.688 439.293 C 862.709 438.036 850.958 436.303 846.507 426.081 C 840.698 412.74 837.292 398.088 833.464 384.066 C 826.237 357.596 818.809 331.152 812.297 304.503 C 810.128 297.388 812.759 287.543 817.132 281.538 C 826.821 268.233 853.399 264.712 868.818 262.357 z" fill="rgb(217,123,63)" transform="translate(0,0)"></path>
<path d="M 866.489 1607.29 C 879.547 1607.75 904.8 1613.66 915.066 1621.78 C 920.907 1626.4 923.554 1632.77 924.403 1640.05 C 925.886 1652.78 903.522 1744.98 897.934 1761.6 C 896.296 1766.47 894.263 1771.68 890.912 1775.62 C 884.131 1783.6 876.186 1785.66 866.188 1786.23 C 844.22 1784.69 799.141 1774.59 807.934 1743.75 C 818.911 1705.25 828.115 1658.44 842.619 1620.86 C 845.432 1613.58 858.791 1608.54 866.489 1607.29 z" fill="rgb(217,123,63)" transform="translate(0,0)"></path>
<path d="M 1788.47 924.421 C 1789.51 924.343 1790.55 924.279 1791.59 924.228 C 1826.22 922.617 1826.77 956.928 1826.54 981.652 C 1826.43 992.766 1823.79 1002.48 1815.69 1010.26 C 1811.88 1013.97 1807.15 1016.58 1801.99 1017.82 C 1789.29 1020.91 1766.98 1020.02 1753.28 1020.03 L 1689.67 1020 C 1656.68 1019.63 1653.09 1005.29 1651.37 976.42 C 1650.44 960.69 1651.58 940.686 1670.61 935.254 C 1686.79 930.635 1707.34 932.692 1724.06 930.125 C 1745.33 928.035 1767.09 926.025 1788.47 924.421 z" fill="rgb(217,123,63)" transform="translate(0,0)"></path>
<path d="M 644.473 351.276 C 651.168 350.996 657.077 351.509 663.067 354.764 C 666.575 356.67 669.615 359.022 672.211 362.06 C 683.347 375.094 736.416 458.088 740.315 473.034 C 741.892 479.075 739.707 485.029 736.531 490.201 C 728.225 503.727 703.571 518.372 688.438 521.945 C 682.318 522.095 676.122 521.313 670.727 518.213 C 660.927 512.582 605.162 428.628 597.227 414.722 C 595.205 411.178 593.55 407.495 592.583 403.517 C 590.734 395.905 591.826 388.256 596.226 381.762 C 603.774 370.624 631.218 354.102 644.473 351.276 z" fill="rgb(217,123,63)" transform="translate(0,0)"></path>
<path d="M 598.743 1463.21 C 615.58 1461.98 620.003 1470.49 631.072 1479.13 C 666.4 1506.71 655.44 1522.65 630.474 1551.44 C 610.186 1574.83 590.697 1599.69 569.61 1622.36 C 566.03 1626.2 559.298 1628.04 554.331 1629.3 C 549.295 1629.1 545.001 1628.51 540.334 1626.51 C 527.87 1621.17 502.81 1601.55 498.183 1588.98 C 495.848 1582.64 495.58 1573.19 498.693 1567.11 C 505.364 1554.08 570.766 1480.3 584.021 1469.79 C 588.467 1466.26 593.418 1464.83 598.743 1463.21 z" fill="rgb(217,123,63)" transform="translate(0,0)"></path>
<path d="M 1521.29 421.289 C 1527.08 420.921 1532.43 420.761 1537.89 423.008 C 1549.91 427.95 1575.13 449.487 1579.6 461.555 C 1581.77 467.421 1582.43 475.278 1579.76 481.085 C 1574.54 492.428 1507.41 567.446 1494.61 578.599 C 1491.08 581.676 1487.74 583.404 1483.38 585.072 C 1465.56 588.119 1459.18 578.757 1447.38 570.203 C 1403.67 540.289 1430.2 515.646 1456.36 486.338 C 1472.9 467.816 1498.78 428.856 1521.29 421.289 z" fill="rgb(217,123,63)" transform="translate(0,0)"></path>
<path d="M 767.879 1574.28 C 778.702 1573.63 785.479 1577.55 795.477 1580.93 C 812.471 1586.68 833.751 1598.59 827.142 1620.47 C 820.425 1642.7 808.869 1665.39 800.496 1687.32 C 794.558 1702.87 787.69 1719.3 780.629 1734.38 C 776.382 1743.15 766.533 1747.35 757.873 1749.54 C 741.636 1749.27 710.639 1737.37 700.609 1723.84 C 695.121 1716.43 694.625 1703.34 697.879 1694.77 C 708.774 1666.09 723.148 1638.51 735.765 1610.46 C 743.65 1592.93 747.211 1578.34 767.879 1574.28 z" fill="rgb(217,123,63)" transform="translate(0,0)"></path>
<path d="M 1608.67 501.304 C 1622.4 500.465 1628.88 504.981 1637.67 515.043 C 1655.09 534.992 1675.22 556.538 1649.08 579.945 C 1634.75 591.837 1619.71 605.716 1604.82 616.761 C 1588.46 628.896 1566.45 651.664 1547.54 658.23 C 1540.75 659.09 1535.03 658.368 1529.12 654.707 C 1519.27 648.61 1498.15 623.799 1495.86 612.605 C 1494.5 605.956 1495.14 599.312 1498.87 593.597 C 1506.79 581.459 1580.54 516.78 1594.97 506.921 C 1599.45 503.857 1603.36 502.375 1608.67 501.304 z" fill="rgb(217,123,63)" transform="translate(0,0)"></path>
<path d="M 546.41 421.185 C 553.614 420.699 560.688 420.986 567.11 424.681 C 579.514 431.818 638.904 503.487 648.903 517.705 C 651.747 521.748 654.95 526.467 655.993 531.342 C 657.433 538.076 655.279 545.095 651.653 550.762 C 643.216 563.951 621.488 581.394 606.349 584.984 C 601.704 585.083 597.296 584.365 593.117 582.233 C 582.908 577.027 515.029 503.03 506.493 491.868 C 502.76 486.986 499.511 481.551 497.661 475.668 C 495.951 470.231 497.786 463.486 500.484 458.662 C 506.93 447.141 533.822 424.701 546.41 421.185 z" fill="rgb(217,123,63)" transform="translate(0,0)"></path>
<path d="M 988.42 247.441 C 1002.52 247.443 1017.9 252.24 1021.47 268.08 C 1025.18 284.531 1024.69 303.349 1026.07 320.289 C 1027.8 341.423 1028.84 362.809 1030.26 383.97 C 1030.94 395.082 1029.21 401.56 1021.3 410.007 C 1011.67 420.283 987.815 418.988 973.761 419.399 C 960.372 419.172 948.59 414.277 944.756 400.346 C 940.848 386.147 939.667 370.828 937.839 356.191 C 934.94 332.993 932.587 309.638 930.261 286.377 C 929.155 276.584 929.736 267.102 936.716 259.45 C 948.635 246.385 971.916 248.067 988.42 247.441 z" fill="rgb(217,123,63)" transform="translate(0,0)"></path>
<path d="M 964.427 1630.14 C 981.058 1628.52 1025.99 1630.51 1027.78 1653.39 C 1030.75 1691.49 1028.16 1732.06 1026.78 1770.37 C 1026.12 1788.47 1012.17 1798.05 996.044 1801.79 C 982.779 1802.72 963.175 1801.98 950.91 1796.61 C 942.963 1793.13 936.964 1786.75 934.113 1778.54 C 932.639 1774.3 932.083 1769.8 932.065 1765.32 C 931.999 1748.39 940.325 1654.12 945.425 1644.19 C 949.25 1636.74 956.859 1632.76 964.427 1630.14 z" fill="rgb(217,123,63)" transform="translate(0,0)"></path>
<path d="M 677.504 1526.25 C 695.212 1525.13 729.531 1545.25 735.793 1562.66 C 738.839 1571.14 734.189 1582.66 729.565 1590.2 C 709.183 1623.42 689.466 1658.08 666.503 1689.5 C 664.05 1692.84 655.697 1695.23 651.765 1696.34 C 631.555 1697.08 616.759 1682.23 601.396 1671 C 589.036 1661.41 588.248 1644.62 595.956 1632.09 C 613.146 1604.28 632.251 1577.55 649.954 1550.05 C 658.679 1536.5 661.337 1530.91 677.504 1526.25 z" fill="rgb(217,123,63)" transform="translate(0,0)"></path>
<path d="M 1318.78 300.268 C 1335.74 299.165 1377.14 316.734 1379.69 335.875 C 1380.43 341.431 1379.08 349.077 1377.1 354.349 C 1364.14 388.778 1347.75 422.02 1333.21 455.835 C 1328.32 467.176 1321.87 471.927 1310.08 474.783 C 1296.92 475.73 1275.59 466.032 1264.06 459.908 C 1240.02 446.972 1249.58 425.799 1257.93 406.172 C 1271.12 375.173 1281.97 342.598 1297.9 312.918 C 1302.12 305.056 1310.61 302.153 1318.78 300.268 z" fill="rgb(217,123,63)" transform="translate(0,0)"></path>
<path d="M 460.395 503.126 C 467.004 502.745 472.212 502.948 478.377 505.681 C 491.08 511.314 560.58 571.32 573.052 584.016 C 576.675 587.704 580.936 592.151 582.717 597.049 C 585.247 604.133 584.734 611.95 581.297 618.642 C 577.789 625.603 559.264 648.082 552.063 653.132 C 549.705 654.785 545.17 656.323 542.344 657.262 C 523.439 658.947 514.241 647.441 500.094 636.402 C 476.815 618.237 452.896 600.633 430.522 581.362 C 405.75 560.025 420.85 542.801 436.745 522.696 C 444.915 512.287 447.25 507.848 460.395 503.126 z" fill="rgb(217,123,63)" transform="translate(0,0)"></path>
<path d="M 283.596 923.276 C 298.866 922.855 403.613 930.544 413.601 935.944 C 420.639 939.75 425.796 947.394 427.497 955.091 C 430.381 968.141 428.147 994.835 420.906 1005.99 C 415.657 1014.07 408.249 1017.2 399.19 1018.94 C 376.468 1017.25 281.666 1017.17 266.973 1009.36 C 260.722 1006.04 255.93 998.915 254.164 992.186 C 250.825 979.465 252.586 947.869 259.643 936.951 C 265.005 928.655 274.402 925.31 283.596 923.276 z" fill="rgb(217,123,63)" transform="translate(0,0)"></path>
<path d="M 1732.7 697.196 C 1743.29 695.93 1758.74 699.325 1763.86 710.44 C 1783.19 752.435 1790.69 775.149 1739 792.476 C 1711.07 801.837 1680.15 816.389 1650.43 825.241 C 1623.66 830.004 1617.6 812.764 1608.69 792.22 C 1601.92 777.185 1601.04 755.269 1618.63 747.183 C 1654.6 730.653 1695.47 709.901 1732.7 697.196 z" fill="rgb(217,123,63)" transform="translate(0,0)"></path>
<path d="M 335.336 699.209 C 353.701 698.016 366.615 706.41 383.222 712.837 C 406.037 721.665 429.936 733.524 452.306 742.577 C 490.771 758.144 478.614 779.883 465.919 810.095 C 461.756 820.003 453.528 824.009 444.266 826.974 C 440.691 827.169 436.051 826.82 432.64 825.749 C 397.281 814.621 362.755 800.499 327.735 788.28 C 318.843 784.273 308.225 779.928 304.238 770.233 C 297.153 753.002 310.651 732.95 316.004 716.602 C 319.076 707.219 326.587 702.485 335.336 699.209 z" fill="rgb(217,123,63)" transform="translate(0,0)"></path>
<path d="M 1765.4 809.15 C 1793.94 805.327 1802.57 822.568 1807.82 846.678 C 1812.28 867.188 1814.98 887.6 1790.81 897.023 C 1779.99 901.238 1766 902.791 1754.62 905.082 L 1679.23 920.14 C 1641.59 924.678 1639.13 898.441 1634.81 869.016 C 1631.78 843.993 1652.94 839.136 1671.53 834.059 C 1702.91 825.49 1734.17 817.769 1765.4 809.15 z" fill="rgb(217,123,63)" transform="translate(0,0)"></path>
<path d="M 431.423 1221.14 C 448.434 1219.84 456.781 1223.77 464.369 1239.08 C 491.608 1294.03 471.789 1298.02 424.079 1318.44 C 400.28 1328.63 373.79 1343.65 348.06 1351.28 C 318.425 1353.81 313.913 1328.02 304.793 1306.18 C 300.655 1297.27 300.303 1281.45 308.326 1274.19 C 323.05 1260.87 350.172 1253.21 368.694 1246.3 C 389.816 1238.45 410.733 1230.06 431.423 1221.14 z" fill="rgb(217,123,63)" transform="translate(0,0)"></path>
<path d="M 530.433 1391.17 C 536.503 1390.77 541.919 1391.17 547.494 1393.88 C 558.831 1399.38 577.339 1422.06 580.909 1434.02 C 582.672 1439.92 582.762 1446.08 579.751 1451.56 C 571.743 1466.13 498.325 1529.28 483.222 1539.64 C 478.599 1542.81 474.413 1544.57 469.035 1546.1 C 444.707 1546.17 440.478 1532.55 427.248 1516.63 C 401.366 1488.72 428.351 1466.62 451.577 1450.09 C 469.221 1437.53 511.152 1396.77 530.433 1391.17 z" fill="rgb(217,123,63)" transform="translate(0,0)"></path>
<path d="M 477.622 1309.12 C 493.566 1310.09 501.531 1316.34 509.197 1330.41 C 513.544 1338.63 519.53 1346.69 522.086 1355.72 C 528.859 1379.67 501.546 1390.82 485.772 1401.75 C 476.597 1406.85 467.043 1414.66 458.037 1419.69 C 441.497 1428.92 415.555 1451.75 397.652 1454.27 C 378.478 1451.53 374.143 1444.01 364.28 1427.78 C 357.558 1418.67 346.014 1395.75 353.98 1384.57 C 365.731 1368.08 401.395 1350.68 418.63 1340.99 C 433.944 1332.38 463.112 1313.46 477.622 1309.12 z" fill="rgb(217,123,63)" transform="translate(0,0)"></path>
<path d="M 1681.53 594.29 C 1700.68 594.262 1705.62 603.674 1714.35 618.822 C 1722.11 630.521 1734.83 651.188 1725.01 665.564 C 1713.86 681.873 1678.21 697.413 1660.39 707.587 C 1646.19 715.7 1617.14 733.823 1603.49 737.871 C 1583.34 738.772 1578.18 727.81 1568.69 713.042 C 1556.07 693.411 1549.98 674.834 1573.17 659.827 C 1604.58 639.495 1636.23 617.988 1668.51 599.033 C 1672.55 596.659 1676.97 595.323 1681.53 594.29 z" fill="rgb(217,123,63)" transform="translate(0,0)"></path>
<path d="M 1423.74 354.137 C 1444.83 353.447 1498.32 382.809 1482.77 409.345 C 1468.89 433.044 1423.15 510.79 1401.4 520.587 C 1387.94 523.121 1384.57 520.984 1372.93 515.364 C 1325.73 492.745 1336.32 472.504 1360.54 435.979 C 1376.04 412.588 1391.03 383.946 1408.51 361.672 C 1411.86 357.402 1418.7 355.425 1423.74 354.137 z" fill="rgb(217,123,63)" transform="translate(0,0)"></path>
<path d="M 752.9 299.203 C 764.728 298.628 776.607 301.52 782.147 312.872 C 799.357 348.675 814.295 386.576 828.776 423.618 C 840.85 454.504 799.689 466.167 778.297 472.226 C 770.853 472.393 757.068 470.769 753.163 463.873 C 746.551 452.194 741.298 439.108 735.698 426.817 C 724.11 401.384 711.526 376.156 701.703 349.991 C 698.803 342.268 700.991 331.683 704.717 324.638 C 711.997 312.31 739.547 302.94 752.9 299.203 z" fill="rgb(217,123,63)" transform="translate(0,0)"></path>
<path d="M 305.497 809.323 C 326.931 811.239 353.59 820.561 374.917 826.142 C 395.209 832.754 418.744 835.159 436.795 846.747 C 442.367 849.424 446.404 860.749 445.422 866.704 C 441.42 890.994 441.042 919.46 411.4 923.459 C 403.147 921.611 383.264 918.096 375.279 915.207 C 355.2 907.943 270.717 904.775 270.875 876.523 C 271.029 848.821 273.259 815.251 305.497 809.323 z" fill="rgb(217,123,63)" transform="translate(0,0)"></path>
<path d="M 409.656 1128.32 C 442.131 1125.33 458.406 1199.38 427.394 1209.08 C 398.073 1218.25 368.101 1226.31 338.451 1234.53 C 328.067 1237.42 317.257 1240.86 306.59 1242.26 C 280.505 1239.83 278.78 1227.5 273.855 1205.78 C 265.054 1166.97 272.612 1155.43 311.797 1148.51 C 343.742 1142.86 377.343 1133.58 409.656 1128.32 z" fill="rgb(217,123,63)" transform="translate(0,0)"></path>
<path d="M 391.417 597.247 C 397.92 596.868 402.046 596.574 408.039 599.728 C 427.191 609.808 445.614 622.417 464.027 633.89 C 478.883 643.547 495.051 652.215 509.175 662.798 C 531.964 679.874 522.546 694.871 511.046 714.573 C 502.889 728.546 499.889 733.718 483.972 738.198 C 464.877 738.105 436.826 716.954 419.146 708.062 C 402.249 699.563 382.619 688.318 366.764 678.196 C 343.83 663.554 349.961 644.824 362.968 625.841 C 372.467 610.738 372.88 603.328 391.417 597.247 z" fill="rgb(217,123,63)" transform="translate(0,0)"></path>
<path d="M 390.889 1031.43 C 412.336 1029.9 423.517 1040.69 426.043 1062.16 C 428.082 1079.5 428.741 1108.88 407.032 1114.61 C 394.238 1117.98 374.344 1118.16 360.508 1119.77 C 337.426 1122.44 313.472 1126.1 290.247 1127.45 C 257.001 1130.54 253.78 1096.38 254.982 1071.9 C 256.841 1034.03 289.182 1038.55 316.943 1036.57 C 341.58 1034.7 366.229 1032.98 390.889 1031.43 z" fill="rgb(217,123,63)" transform="translate(0,0)"></path>
<metadata><recraft-signature>{"signed_by": "recraft", "signature_b64": "wALJ2/WZXtt7GwjdBLhNlBA1l3bmEv/sXNizR9JGHqzd50TyGPMRW71OsAFfuyVigAD4eH2TyYlxuk/WJju7CA==", "signing_algo": "Ed25519", "generation_timestamp": 1772101048, "identifier": "a728bc8f-3c85-4466-aa08-036dd63bb6d0"}</recraft-signature></metadata></svg>