<svg xmlns="http://www.w3.org/2000/svg" height="1024" preserveAspectRatio="none" style="display: block;" version="1.1" viewBox="0 0 2048 2048" width="1024">
<path d="M 0 0 L 2048 0 L 2048 2048 L 0 2048 L 0 0 z" fill="rgb(255,255,255)" transform="translate(0,0)"></path>
<path d="M 983.768 399.421 C 1018.22 396.662 1073.32 399.081 1107.61 403.153 C 1270.42 423.378 1418.69 507.023 1520.2 635.922 C 1631.64 777.936 1677.85 939.35 1655.93 1118.88 C 1649.85 1165.46 1638.15 1211.14 1621.08 1254.91 C 1579.5 1365.11 1507.88 1461.46 1414.35 1533.05 C 1394.5 1548.56 1373.73 1563.58 1352.2 1576.68 C 1337.65 1585.54 1322.71 1596.04 1304.79 1593.45 C 1293.09 1591.78 1282.55 1585.49 1275.54 1575.97 C 1268.54 1566.51 1265.17 1554.42 1266.98 1542.73 C 1268.49 1533.64 1272.8 1525.24 1279.31 1518.71 C 1284.88 1513.11 1292.81 1508.32 1299.62 1504.25 C 1317.06 1493.81 1333.34 1482.33 1349.87 1470.5 C 1389.89 1439.86 1425.89 1404.3 1457.02 1364.66 C 1546.07 1250.26 1585.15 1104.74 1565.41 961.118 C 1546.77 816.836 1471.31 685.964 1355.76 597.565 C 1229.04 500.163 1058.98 466.485 903.592 501.097 C 881.539 506.232 859.812 512.674 838.524 520.389 C 821.943 526.481 803.215 537.261 785.649 539.244 C 774.073 540.551 762.052 537.45 753.043 529.927 C 743.082 521.608 737.905 510.289 737.074 497.432 C 736.303 485.496 740.144 474.122 748.13 465.193 C 769.435 441.37 875.947 414.426 910.008 408.219 C 934.529 403.75 958.927 401.162 983.768 399.421 z" fill="rgb(254,76,34)" transform="translate(0,0)"></path>
<path d="M 654.997 323.2 C 679.502 321.877 697.533 336.267 700.329 360.769 C 704.429 396.692 670.033 409.555 645.257 425.121 C 634.413 432.085 623.745 439.32 613.262 446.817 C 556.151 487.086 497.844 547.015 456.273 602.701 C 396.583 683.459 353.559 775.287 329.708 872.836 C 323.524 897.549 318.946 926.192 315.753 951.507 C 311.226 987.394 317.319 1022.39 269.248 1027.66 C 259.197 1027.35 251.774 1026.19 242.931 1020.63 C 232.923 1014.38 225.846 1004.37 223.288 992.847 C 221.087 982.499 225.035 952.976 226.638 940.759 C 241.62 826.548 282.392 710.712 343.211 612.948 C 406.231 511.08 490.649 424.134 590.614 358.137 C 606.068 347.835 637.878 327.197 654.997 323.2 z" fill="rgb(254,76,34)" transform="translate(0,0)"></path>
<path d="M 483.027 751.27 C 493.185 750.66 503.25 753.509 511.581 759.353 C 547.247 784.033 524.972 818.349 513.581 847.991 C 509.899 857.759 506.568 867.655 503.593 877.66 C 494.378 908.096 489.838 929.361 485.398 960.881 C 474.235 1041.03 481.421 1122.66 506.415 1199.62 C 514.829 1224.9 527.253 1252.12 534.358 1277.13 C 541.366 1301.8 518.121 1325.2 492.762 1328.73 C 483.647 1329.18 474.336 1326.8 466.755 1321.68 C 439.249 1303.09 408.747 1192.14 401.886 1157 C 381.119 1050.66 387.83 951.278 418.989 847.805 C 425.643 825.709 438.431 788.516 450.806 770.442 C 458.971 758.517 469.218 753.793 483.027 751.27 z" fill="rgb(254,76,34)" transform="translate(0,0)"></path>
<path d="M 328.12 1302.16 C 343.299 1300.76 361.555 1304.58 370.561 1318.24 C 378.896 1331.86 386.768 1347.2 394.132 1361.42 C 454.246 1477.5 544.592 1578.76 658.965 1643.39 C 689.491 1660.64 731.291 1678.12 711.026 1721.92 C 705.005 1734.94 692.728 1741.97 679.587 1745.93 C 665.842 1748.44 654.076 1743.48 642.366 1736.89 C 513.536 1664.88 406.12 1559.98 331.085 1432.89 C 321.424 1416.6 296.659 1373.53 292.267 1356.56 C 289.296 1345.3 291.198 1333.31 297.506 1323.52 C 305.168 1311.39 314.619 1305.43 328.12 1302.16 z" fill="rgb(254,76,34)" transform="translate(0,0)"></path>
<path d="M 1001.76 230.261 C 1126.19 224.08 1285.7 260.17 1395.24 319.009 C 1416.74 332.529 1455.92 345.285 1462.89 371.967 C 1470.47 401.011 1455.66 421.59 1427.33 429.102 C 1409.61 429.645 1400.06 422.561 1385.29 414.079 C 1305.27 368.113 1216.27 339.298 1124.9 326.958 C 1098.73 323.61 1072.42 321.377 1046.06 320.265 C 1029.27 319.643 996.924 322.197 983.92 312.73 C 950.219 288.197 958.341 238.309 1001.76 230.261 z" fill="rgb(254,76,34)" transform="translate(0,0)"></path>
<path d="M 1667.03 602.133 C 1705.46 598.195 1714.68 622.552 1730.22 651.011 C 1763.8 711.897 1789.51 776.798 1806.75 844.158 C 1817.66 885.361 1827.59 943.277 1828.7 987.035 C 1829.19 1006.36 1811.24 1022.17 1792.14 1026.89 C 1780.5 1028.44 1772.27 1027.54 1761.41 1022.19 C 1735.87 1009.59 1738.73 975.172 1735.31 949.147 C 1725.36 871.985 1703.24 796.89 1669.76 726.663 C 1665.31 717.371 1660.57 707.59 1655.42 698.65 C 1648.1 685.477 1636.69 673.023 1632.32 658.437 C 1624.19 631.255 1641.28 608.919 1667.03 602.133 z" fill="rgb(254,76,34)" transform="translate(0,0)"></path>
<path d="M 1276.93 1697.21 C 1323.48 1693.66 1345.16 1734.51 1317.17 1771.45 C 1307.76 1783.85 1280.22 1788.36 1264.53 1793.5 C 1177.4 1822.04 1091.17 1828.82 1000.27 1831.01 C 977.384 1831.27 957.733 1825.03 949.317 1801.24 C 945.161 1789.27 946.111 1776.11 951.944 1764.86 C 967.68 1734.32 1006.2 1741.35 1035.31 1740.98 C 1050.57 1740.64 1065.83 1739.86 1081.05 1738.65 C 1155.96 1733.16 1206.8 1719.25 1276.93 1697.21 z" fill="rgb(254,76,34)" transform="translate(0,0)"></path>
<path d="M 727.863 1501.18 C 752.052 1499.43 770.235 1514.6 792.292 1523.73 C 831.481 1540.32 872.101 1553.3 913.647 1562.5 C 934.265 1567.2 983.904 1570.93 998.063 1579.88 C 1007.91 1586.1 1014.98 1595.74 1017.35 1607.19 C 1019.66 1618.4 1017.53 1631.06 1011.22 1640.64 C 1003.89 1651.77 992.981 1657.99 980.244 1660.82 C 964.463 1661.64 945.318 1657.58 929.446 1655 C 856.273 1643.25 786.581 1619.93 719.695 1588.29 C 676.509 1567.86 681.595 1513.59 727.863 1501.18 z" fill="rgb(254,76,34)" transform="translate(0,0)"></path>
<path d="M 1712.33 1301.32 C 1721.54 1300.97 1729.93 1302.83 1737.93 1307.53 C 1748.22 1313.63 1755.63 1323.62 1758.49 1335.24 C 1760.1 1341.56 1760.2 1348.17 1758.78 1354.53 C 1754.89 1371.79 1725.44 1425.13 1713.88 1443.65 C 1685.36 1489.33 1647.47 1545.77 1607.43 1582.13 C 1604.1 1585.15 1593.5 1587.89 1588.88 1589.03 C 1577.68 1589.54 1569.33 1588.82 1559.51 1582.61 C 1549.1 1575.96 1541.95 1565.26 1539.79 1553.1 C 1536.56 1535.52 1542.41 1524.91 1553.36 1511.73 C 1562.97 1500.16 1573.06 1488.96 1582.54 1477.28 C 1598.24 1457.69 1612.97 1437.33 1626.67 1416.28 C 1638.55 1398.02 1649.4 1379.12 1659.17 1359.66 C 1672.49 1332.97 1678.7 1306.17 1712.33 1301.32 z" fill="rgb(254,76,34)" transform="translate(0,0)"></path>
<path d="M 770.825 738.25 C 779.815 737.156 788.647 737.435 796.846 741.721 C 807.494 747.287 915.402 856.923 928.852 872.536 C 933.179 877.557 937.292 882.631 939.202 889.096 C 943.029 902.052 942.376 915.613 935.412 927.423 C 928.388 939.332 917.997 945.227 905.097 948.823 C 873.421 950.428 864.187 934.775 843.622 913.75 C 811.21 880.614 777.605 846.997 745.663 813.491 C 721.087 787.712 735.157 748.265 770.825 738.25 z" fill="rgb(254,76,34)" transform="translate(0,0)"></path>
<path d="M 894.883 1110.32 C 928.239 1107.74 952.448 1141.25 939.946 1172.5 C 938.901 1175.11 929.982 1185.55 927.808 1187.68 C 906.584 1208.51 885.116 1229.05 864.192 1250.2 L 826.489 1288.59 C 811.203 1304.11 803.836 1314.75 782.111 1321.16 C 770.237 1321.56 760.467 1320.24 750.456 1313.08 C 740.794 1306.18 734.276 1295.72 732.345 1284 C 727.881 1255.25 753.792 1238.89 771.78 1220.35 C 794.555 1196.83 817.614 1173.58 840.951 1150.62 C 852.23 1139.39 864.273 1126.45 876.571 1116.5 C 881.375 1112.62 888.858 1111.21 894.883 1110.32 z" fill="rgb(254,76,34)" transform="translate(0,0)"></path>
<path d="M 1265.68 738.232 C 1300.77 734.579 1327.13 766.119 1313.19 799.694 C 1311.87 802.876 1304.63 811.87 1302.02 814.561 C 1269.77 847.52 1236.98 879.995 1204.55 912.786 C 1189.86 927.633 1178.76 942.156 1158.35 948.803 C 1136.2 950.396 1116.65 942.451 1108.85 919.969 C 1102.15 899.933 1110.5 883.76 1124.33 869.739 C 1165.03 828.487 1206.04 787.474 1247.34 746.859 C 1251.39 742.876 1260.2 740.014 1265.68 738.232 z" fill="rgb(254,76,34)" transform="translate(0,0)"></path>
<path d="M 1144.02 1110.2 C 1160.68 1108.98 1171.09 1113.15 1182.76 1124.9 C 1223.55 1165.98 1264.41 1207.08 1305.06 1248.29 C 1331.68 1275.29 1316.84 1310.52 1282.2 1320.76 C 1251.21 1323.34 1240.18 1304.94 1220.07 1284.73 L 1163.28 1227.12 C 1148.94 1212.56 1132.55 1197.92 1119.31 1182.53 C 1096.39 1155.88 1109.36 1118.68 1144.02 1110.2 z" fill="rgb(254,76,34)" transform="translate(0,0)"></path>
<path d="M 1018.92 633.135 C 1048.03 630.133 1070.51 648.506 1070.78 678.065 C 1071.28 732.884 1071.39 787.868 1070.61 842.682 C 1070.29 865.24 1054.03 877.898 1033.9 884.081 C 1008.88 888.773 982.327 870.956 981.852 844.347 C 980.847 788.093 981.901 731.663 982.065 675.387 C 982.135 651.124 997.173 638.965 1018.92 633.135 z" fill="rgb(254,76,34)" transform="translate(0,0)"></path>
<path d="M 674.262 984.361 C 705.373 982.644 739.665 984.629 771.125 984.049 C 793.466 983.637 822.779 983.102 844.523 984.702 C 890.675 988.1 897.114 1066.26 844.017 1074.14 C 805.102 1074.69 766.184 1074.95 727.266 1074.94 C 708.736 1074.95 689.717 1075.46 671.25 1074.06 C 652.918 1072.52 638.052 1059.47 635.41 1041.06 C 631.117 1011.15 642.085 988.559 674.262 984.361 z" fill="rgb(254,76,34)" transform="translate(0,0)"></path>
<path d="M 1022.95 1172.36 C 1048.62 1171.35 1070.42 1188.18 1070.79 1214.43 C 1070.94 1225.23 1071.09 1235.94 1071.11 1246.74 L 1071.17 1305.62 C 1071.18 1331.54 1071.76 1357.77 1070.54 1383.62 C 1069.51 1405.48 1050.1 1419.95 1029.99 1423.73 C 1017.3 1424.3 1008.3 1421.67 998.084 1413.73 C 978.654 1398.62 982.013 1371.59 982.014 1349.5 L 982.031 1293.5 L 982.023 1242.06 C 981.996 1209.02 978.91 1177.07 1022.95 1172.36 z" fill="rgb(254,76,34)" transform="translate(0,0)"></path>
<path d="M 1211.83 984.48 L 1319.79 984.1 C 1339.43 984.039 1361.1 983.208 1380.43 985.224 C 1413.06 988.627 1424.34 1035.65 1406 1059.07 C 1396.79 1070.83 1386.4 1073.17 1372.59 1074.8 C 1317.98 1075.77 1259.3 1075.04 1204.75 1073.92 C 1163.31 1073.06 1152.3 988.769 1211.83 984.48 z" fill="rgb(254,76,34)" transform="translate(0,0)"></path>
<path d="M 1557.39 457.57 C 1572.23 454.689 1587.48 460.004 1597.31 471.488 C 1607.14 482.972 1610.05 498.854 1604.92 513.075 C 1599.78 527.296 1587.41 537.662 1572.5 540.22 C 1549.81 544.114 1528.21 529.019 1524.07 506.37 C 1519.93 483.721 1534.79 461.959 1557.39 457.57 z" fill="rgb(254,76,34)" transform="translate(0,0)"></path>
<path d="M 1144.26 1566.55 C 1167.21 1565.35 1186.85 1582.85 1188.29 1605.79 C 1189.73 1628.72 1172.42 1648.54 1149.5 1650.2 C 1134.47 1651.3 1120.01 1644.24 1111.63 1631.71 C 1103.25 1619.18 1102.24 1603.11 1108.99 1589.64 C 1115.74 1576.16 1129.21 1567.35 1144.26 1566.55 z" fill="rgb(254,76,34)" transform="translate(0,0)"></path>
<path d="M 581.271 1392.57 C 604.175 1388.81 625.774 1404.38 629.443 1427.3 C 633.112 1450.22 617.453 1471.75 594.519 1475.33 C 571.716 1478.89 550.331 1463.34 546.683 1440.55 C 543.035 1417.76 558.498 1396.31 581.271 1392.57 z" fill="rgb(254,76,34)" transform="translate(0,0)"></path>
<path d="M 815.575 257.287 C 838.324 252.781 860.402 267.627 864.81 290.395 C 869.218 313.164 854.277 335.177 831.49 339.488 C 808.841 343.772 786.99 328.941 782.608 306.311 C 778.226 283.68 792.963 261.766 815.575 257.287 z" fill="rgb(254,76,34)" transform="translate(0,0)"></path>
<path d="M 272.698 1127.31 C 287.593 1124.99 302.585 1130.86 311.94 1142.68 C 321.295 1154.5 323.567 1170.44 317.887 1184.41 C 312.207 1198.37 299.453 1208.2 284.503 1210.13 C 261.798 1213.07 240.95 1197.21 237.72 1174.55 C 234.489 1151.88 250.077 1130.83 272.698 1127.31 z" fill="rgb(254,76,34)" transform="translate(0,0)"></path>
<path d="M 1439.56 1622.65 C 1462.4 1619.41 1483.55 1635.27 1486.83 1658.1 C 1490.12 1680.93 1474.31 1702.11 1451.49 1705.44 C 1428.59 1708.79 1407.34 1692.92 1404.04 1670.02 C 1400.74 1647.12 1416.66 1625.9 1439.56 1622.65 z" fill="rgb(254,76,34)" transform="translate(0,0)"></path>
<path d="M 1764.5 1127.64 C 1787.19 1123.43 1809 1138.44 1813.16 1161.15 C 1817.32 1183.85 1802.26 1205.63 1779.54 1209.74 C 1756.9 1213.84 1735.21 1198.83 1731.06 1176.19 C 1726.91 1153.56 1741.87 1131.83 1764.5 1127.64 z" fill="rgb(254,76,34)" transform="translate(0,0)"></path>
<metadata><recraft-signature>{"signed_by": "recraft", "signature_b64": "wgI8zlZ1cfnYYlwZH/0At8uPQgX5xV3NYwQ7ocs6C5f61WQTrN9fSKtBpSCbJt7qdQnyu522B3T0cw84BbDhBg==", "signing_algo": "Ed25519", "generation_timestamp": 1772101050, "identifier": "4432a3c7-1932-4846-83f4-94eaf4382dfa"}</recraft-signature></metadata></svg>