<svg xmlns="http://www.w3.org/2000/svg" height="1024" preserveAspectRatio="none" style="display: block;" version="1.1" viewBox="0 0 2048 2048" width="1024">
<path d="M 0 0 L 2048 0 L 2048 2048 L 0 2048 L 0 0 z" fill="rgb(255,255,255)" transform="translate(0,0)"></path>
<path d="M 994.383 905.277 C 998.362 891.671 1001.53 865.955 1003.5 851.544 L 1014.83 768.388 C 1017.64 747.845 1020.07 726.528 1025.17 706.486 L 1039.56 814.51 C 1042.93 840.389 1045.53 880.835 1054.52 903.921 C 1059.25 902.139 1062.82 900.405 1066.35 896.669 C 1081.23 880.916 1094.78 862.566 1108.5 845.694 L 1176.61 763.394 L 1178.55 765.426 C 1172.82 775.533 1159.08 811.467 1153.58 824.539 L 1129.71 881.003 C 1124.88 892.355 1109.32 924.983 1111.55 934.053 C 1114.45 945.876 1181.36 912.698 1187.89 909.837 C 1216.73 897.14 1245.77 884.898 1275 873.117 L 1286.52 868.518 L 1277.39 876.112 C 1251.77 898.243 1225.78 919.946 1199.43 941.211 C 1183.73 953.934 1167.9 966.462 1152.81 979.777 C 1144.41 987.182 1144.03 995.371 1156.29 997.153 C 1207.83 1004.64 1259.53 1011.72 1311.2 1018.21 C 1319.46 1019.25 1327.61 1020.14 1335.32 1023.11 C 1277.24 1032.98 1216.83 1038.82 1158.76 1049.41 C 1155.43 1050.01 1147.07 1057.16 1144.21 1059.76 C 1158.15 1074.42 1188.51 1096.24 1204.93 1109.07 C 1235.83 1133.43 1266.55 1158.03 1297.08 1182.85 C 1239.92 1161.5 1184.04 1133.5 1126.8 1112.25 C 1122.68 1110.72 1116.48 1110.17 1112.37 1112.04 C 1106.71 1122.49 1132.39 1173.32 1137.77 1186.35 C 1151.71 1220.13 1168.03 1253.95 1181.84 1287.77 C 1169.22 1274.72 1157.98 1259.57 1145.99 1245.83 C 1126.61 1223.61 1107.85 1200.88 1087.85 1179.19 C 1072.14 1162.16 1073.73 1151.81 1049.82 1145.79 C 1042.52 1189.08 1039.06 1235.46 1033.09 1279.13 C 1031.16 1293.28 1028.42 1326.37 1024.44 1338.49 C 1024.49 1340.02 1024.66 1339.27 1023.83 1340.69 L 1022.94 1337.93 C 1017.76 1322.98 1017.53 1303.66 1015.76 1287.85 C 1013.58 1268.35 1002.63 1160.09 995.659 1150.05 C 994.158 1147.88 993.264 1147.79 990.886 1147.13 C 986.691 1147.86 983.757 1149.52 980.946 1152.82 C 941.075 1199.71 903.299 1248.61 864.069 1296.02 C 882.48 1253.54 899.603 1210.43 918 1167.95 C 926.92 1147.34 934.044 1130.73 938.624 1108.62 C 905.11 1115.19 872.353 1131.52 840.725 1145.22 C 811.563 1157.9 782.187 1170.08 752.612 1181.77 C 762.824 1172.45 773.988 1164.07 784.773 1155.37 L 851.593 1102.27 C 859.647 1095.89 900.246 1065.11 899.642 1056.97 C 896.882 1052.72 889.454 1048.47 884.592 1047.71 C 828.269 1038.86 766.118 1035.51 710.692 1022.86 C 726.07 1018.89 742.869 1017.56 758.637 1015.25 C 801.308 1009 843.997 1003.18 886.814 998.042 C 892.413 997.37 900.443 994.562 901.351 988.144 C 900.763 984.921 899.288 982.944 896.812 980.812 C 849.996 940.528 798.03 903.586 751.908 862.686 C 783.935 875.389 817.582 891.39 849.727 904.653 C 879.438 916.911 903.822 932.112 935.957 938.679 C 936.609 914.506 926.855 898.756 917.294 877.283 C 905.843 851.476 894.612 825.572 883.603 799.573 C 876.576 783.056 866.862 763.148 863.445 745.857 C 892.753 784.778 923.091 822.606 953.537 860.626 C 966.278 876.538 977.771 893.26 994.383 905.277 z" fill="rgb(217,123,63)" transform="translate(0,0)"></path>
<path d="M 1023.33 474.043 C 1048.52 473.465 1067.06 476.191 1091.41 479.207 C 1158.65 487.534 1210.86 507.25 1270.96 536.541 C 1261.6 549.063 1244.31 582.19 1235.24 597.554 C 1228.35 608.691 1222.01 618.925 1215.77 630.438 C 1148.67 601.232 1098.56 585.783 1023.95 584.897 C 1023.97 548.541 1024.49 510.209 1023.33 474.043 z" fill="rgb(217,123,63)" transform="translate(0,0)"></path>
<path d="M 1223.5 1409.84 C 1227.31 1411.49 1272.41 1495.42 1277.93 1505.81 C 1231.8 1534.21 1150.63 1560.5 1096.78 1565.96 C 1082.44 1568.63 1059.09 1569.97 1043.98 1571.17 C 1043.86 1534.34 1045.26 1496.12 1046.31 1459.24 C 1114.01 1454.71 1163.07 1438.93 1223.5 1409.84 z" fill="rgb(217,123,63)" transform="translate(0,0)"></path>
<path d="M 651.455 1253.91 C 655.643 1254.27 668.331 1276.7 672.411 1282.33 C 705.922 1328.55 738.071 1352.77 782.71 1385.48 C 767.953 1414.49 741.828 1451.05 724.989 1481.27 C 717.967 1477.15 710.864 1472.2 704.069 1467.65 C 656.135 1433.17 615.913 1394.87 581.075 1347.15 C 573.825 1337.22 562.502 1322.04 558.22 1310.85 L 651.455 1253.91 z" fill="rgb(217,123,63)" transform="translate(0,0)"></path>
<path d="M 563.926 1032.5 L 584.82 1031.82 C 586.628 1045.99 587.018 1061.15 588.968 1075.88 C 595.42 1124.61 606.358 1167.14 629.228 1210.67 C 600.528 1229.47 566.345 1248.98 536.55 1267.04 C 536.264 1267.2 534.624 1267.51 534.232 1267.6 C 531.384 1265.39 522.617 1245.5 520.6 1241.13 C 490.668 1176.6 474.683 1106.48 473.687 1035.35 C 503.755 1034.99 533.834 1033.27 563.926 1032.5 z" fill="rgb(217,123,63)" transform="translate(0,0)"></path>
<path d="M 1394.32 1253.54 C 1397.43 1254.59 1420.72 1270.65 1425.67 1273.94 C 1445.98 1287.4 1466.38 1300.71 1486.88 1313.86 C 1452.59 1371.57 1399.73 1428.83 1344.4 1466.81 C 1336.43 1472.35 1328.29 1477.62 1319.97 1482.61 C 1313.54 1468.64 1304 1452.61 1296.33 1439.08 C 1286.08 1420.99 1275.95 1402.83 1265.92 1384.61 C 1324.91 1345.17 1354.47 1310.22 1394.32 1253.54 z" fill="rgb(217,123,63)" transform="translate(0,0)"></path>
<path d="M 823.096 1409.95 C 890.398 1440.41 923.446 1451.36 998.062 1458.19 C 998.357 1495.21 996.401 1533.71 995.927 1570.91 C 979.242 1569.81 962.605 1568.08 946.052 1565.71 C 886.995 1556.79 818.345 1535.45 766.847 1504.73 C 785.147 1473.5 806.139 1441.25 823.096 1409.95 z" fill="rgb(217,123,63)" transform="translate(0,0)"></path>
<path d="M 1561.03 1035.43 L 1573.25 1035.03 C 1572.67 1112.13 1548.36 1202.85 1512.01 1270.61 C 1495.48 1260.77 1479.13 1250.62 1462.97 1240.18 C 1449.32 1230.82 1431.99 1219.36 1417.89 1211.2 C 1424.13 1195.75 1430.8 1182.58 1436.94 1166.05 C 1453.39 1121.8 1457.48 1085.28 1461.21 1039.19 C 1489.93 1039.2 1531.83 1036.76 1561.03 1035.43 z" fill="rgb(217,123,63)" transform="translate(0,0)"></path>
<path d="M 1502.93 760.851 C 1506.58 762.475 1516.93 784.433 1519.3 789.263 C 1549.77 850.426 1567.83 917.02 1572.42 985.199 C 1541.52 986.335 1509.99 988.747 1479.21 989.159 L 1462.21 990.013 C 1459.71 973.917 1458.32 959.289 1455.24 942.839 C 1446.89 898.888 1431.89 856.466 1410.76 817.031 C 1436.18 799.907 1476.11 775.746 1502.93 760.851 z" fill="rgb(217,123,63)" transform="translate(0,0)"></path>
<path d="M 1314.68 560.458 C 1388.31 603.164 1430.81 648.284 1477.54 717.975 C 1457.35 731.755 1428.44 749.588 1407.54 762.143 L 1385.03 775.698 C 1374.78 764.752 1362.95 747.896 1352.03 735.758 C 1325.14 705.845 1291.97 676.606 1257.94 655.258 C 1276.43 623.411 1295.35 591.808 1314.68 560.458 z" fill="rgb(217,123,63)" transform="translate(0,0)"></path>
<path d="M 594.462 766.398 C 611.07 778.037 629.181 788.959 646.449 799.721 C 615.095 851.031 589.249 922.453 586.605 982.871 L 574.698 983.829 C 557.593 984.21 540.019 985.012 522.862 985.558 C 522.524 972.88 524.77 955.102 526.763 942.26 C 537.071 875.831 559.684 823.111 594.462 766.398 z" fill="rgb(217,123,63)" transform="translate(0,0)"></path>
<path d="M 1176.61 763.394 C 1180.12 758.054 1180.61 760.532 1178.55 765.426 L 1176.61 763.394 z" fill="rgb(230,140,75)" transform="translate(0,0)"></path>
<metadata><recraft-signature>{"signed_by": "recraft", "signature_b64": "dXkJGF4g37aMc2CoDvcEl+2xeEjb2rAU/j9wB58n2XNc5NujHFJ/IlpdmplNI9LkOsuwM+j5k+UzKHenKJPoAg==", "signing_algo": "Ed25519", "generation_timestamp": 1772101048, "identifier": "ee72430b-d15a-4ed1-b1ba-1790b5b5b2b4"}</recraft-signature></metadata></svg>