<svg xmlns="http://www.w3.org/2000/svg" height="1024" preserveAspectRatio="none" style="display: block;" version="1.1" viewBox="0 0 2048 2048" width="1024">
<path d="M 0 0 L 2048 0 L 2048 2048 L 0 2048 L 0 0 z" fill="rgb(255,255,255)" transform="translate(0,0)"></path>
<path d="M 641.492 699.271 C 666.458 697.5 688.954 706.063 704.111 726.641 C 720.962 749.519 727.859 781.995 714.24 808.055 C 707.324 821.29 697.84 833.516 689.883 846.327 C 681.26 860.473 673.985 875.397 668.154 890.904 C 648.251 942.435 642.682 986.539 644.244 1041.49 C 645.359 1080.71 650.656 1118.91 663.74 1156.16 C 697.32 1251.76 793.561 1351.61 890.011 1383.9 C 908.066 1389.99 926.59 1394.59 945.396 1397.65 C 962.879 1400.42 991.74 1403.1 1007.25 1408.82 C 1050.98 1425.56 1076.31 1491.77 1041.23 1527.53 C 1022.88 1546.24 1010.28 1552.3 984.361 1552.68 C 899.167 1549.6 802.71 1517.81 731.875 1470.47 C 614.541 1392.04 527.201 1268.49 499.956 1129.6 C 473.251 993.456 500.8 855.723 579.987 741.811 C 598.293 715.477 609.655 705.497 641.492 699.271 z" fill="rgb(217,123,63)" transform="translate(0,0)"></path>
<path d="M 1012.89 938.63 C 1012.99 918.605 1014.96 895.025 1016 874.551 C 1017.47 843.267 1018.63 811.97 1019.5 780.663 C 1020.01 763.092 1020.55 745.534 1020.72 727.956 C 1020.77 723.55 1020.33 717.415 1025.18 715.922 L 1026.75 717.372 C 1032.22 730.871 1032.07 859.744 1032.15 880.981 C 1033.16 890.486 1032.89 907.54 1032.91 917.461 C 1032.93 926.866 1033.51 942.808 1032.83 951.664 C 1033.04 954.207 1032.23 957.196 1034.73 957.912 L 1035.92 952.711 C 1041.26 933.453 1075.53 819.488 1082.86 812.252 L 1084.87 811.816 L 1086.55 813.09 C 1087.37 819.527 1059.61 943.014 1056.09 955.34 C 1074.89 926.897 1094.03 898.679 1113.49 870.692 C 1118.07 864.041 1133.87 838.61 1139.38 836.594 L 1141.14 837.322 C 1142.65 842.129 1139.96 846.378 1137.4 850.946 C 1114.52 891.764 1091.12 937.87 1066.42 977.298 L 1069.24 977.155 C 1077.56 967.348 1086.92 958.65 1096.03 949.639 C 1140.96 905.201 1183.67 858.686 1231.89 817.673 C 1236.02 814.162 1238.19 811.921 1243.04 809.138 L 1244.94 809.02 C 1244.23 818.938 1204.12 858.523 1195.21 867.297 C 1162.09 899.915 1132.81 940.831 1099.61 972.716 C 1114.41 965.47 1216.22 913.137 1222.6 913.888 L 1223.81 916.872 C 1220.84 922.538 1105.45 993.523 1087.48 1004.26 C 1104.19 1000.54 1234.65 965.105 1241.94 967.975 C 1244.01 971.168 1243.7 969.545 1243.64 972.803 C 1237.25 977.351 1222.57 980.025 1214.94 983.04 C 1182.08 996.025 1148.12 1007.37 1114.48 1018.27 C 1109.38 1019.48 1104.88 1020.62 1099.82 1022.08 C 1128.5 1020.93 1156.44 1022.51 1184.57 1021.76 C 1202.53 1021.93 1338.54 1021.09 1344.51 1024.11 L 1345.16 1025.96 C 1342.34 1029.25 1334.37 1030.3 1330.23 1030.46 C 1303.81 1031.47 1277.24 1032.35 1250.83 1033.45 L 1116.54 1040.13 C 1109.19 1041.54 1103.48 1039.93 1099.04 1042.51 C 1140.31 1052.22 1180.77 1065.01 1222.03 1074.71 C 1229.38 1076.44 1240.95 1078.65 1246.23 1084.24 L 1246.51 1086.41 C 1244.87 1088.12 1243.14 1089.62 1240.49 1089.19 C 1189.62 1080.84 1134.52 1071.49 1084.76 1059.26 L 1169.88 1109.06 C 1180.85 1115.42 1214.45 1134.1 1222.04 1141.64 L 1222.13 1143.37 C 1212.89 1145.12 1177.12 1126.23 1166.43 1121.21 C 1141.73 1109.61 1116.1 1098.36 1091.63 1086.31 C 1130.97 1122.39 1170.17 1163.93 1206.8 1202.88 C 1216.9 1213.62 1241.94 1239.25 1248.28 1251.23 C 1227.72 1242.18 1171.7 1182.25 1151.16 1164.35 C 1132.07 1147.72 1098.3 1118.75 1081.43 1101.55 L 1077.82 1097.2 L 1077 1099.05 L 1079.57 1103.49 C 1098.06 1132.25 1112.67 1168.18 1131.12 1197.44 C 1135.48 1204.35 1141.62 1214.18 1141.47 1222.42 L 1139.62 1223.12 C 1130.74 1216.62 1065.73 1117.26 1058.19 1103.32 C 1062.91 1133.58 1070.9 1163.37 1077.04 1193.33 C 1078.78 1201.82 1087.89 1237.74 1084.22 1243.74 L 1082.06 1243.78 C 1073.68 1238.45 1040.23 1114.74 1035.44 1095.03 C 1032.46 1100.32 1034.69 1128.68 1033.15 1139.31 C 1032.74 1165.69 1032 1326.18 1025.75 1337.53 C 1024.8 1339.25 1025.31 1338.7 1023.29 1339.23 C 1018.23 1333.99 1019.53 1315.23 1019.35 1307.35 L 1018.31 1254.46 C 1017.6 1209.09 1016.46 1163.73 1014.89 1118.38 C 1014.43 1115.72 1014.91 1110.77 1012.37 1110.2 C 1007.37 1131.53 999.306 1154.89 993.109 1176.1 C 990.202 1186.06 976.448 1239.74 971.357 1243.74 C 967.72 1244 969.254 1244.49 966.503 1242.54 C 963.981 1234.69 992.108 1115.83 996.405 1102.28 L 994.393 1099.99 C 992.612 1103.76 985.99 1113.8 983.571 1117.66 C 975.291 1130.85 966.922 1143.98 958.464 1157.05 C 945.97 1176.5 932.702 1197.7 919.295 1216.67 C 917.567 1219.11 915.512 1219.93 912.752 1220.06 L 911.496 1218.13 C 911.698 1206.52 964.751 1117.17 974.427 1100.57 C 963.959 1110.55 949.748 1121.77 938.565 1131.15 C 924.292 1143.18 910.239 1155.47 896.414 1168.01 C 870.04 1191.74 845.235 1216.39 819.361 1240.63 C 816.46 1243.34 809.599 1248.78 805.768 1249.12 C 805.795 1248.45 805.736 1247.77 805.849 1247.1 C 807.937 1234.8 957.203 1086.71 975.349 1071.39 L 974.4 1069.62 C 932.116 1095.22 883.871 1116.07 839.99 1139.24 C 836.678 1140.99 831.535 1143.98 828.217 1141.5 C 828.914 1138.08 833.554 1134.25 836.419 1132.5 C 875.943 1108.37 914.855 1080.66 954.776 1057.5 C 956.874 1056.49 957.224 1056.16 959.164 1054.83 C 956.53 1053.91 954.268 1054.77 951.189 1055.27 C 920.778 1061.2 890.45 1067.55 860.213 1074.32 C 852.026 1076.12 810.77 1086.42 805.658 1083.74 C 804.861 1080.19 808.139 1077.67 811.238 1076.92 C 855.066 1066.29 903.83 1044.94 948.039 1038.22 C 939.253 1036.76 914.337 1036.61 904.07 1036.11 C 858.145 1034.35 812.206 1032.95 766.258 1031.92 C 756.509 1031.73 710.661 1033.16 706.711 1027.05 L 707.909 1024.97 C 714.372 1020.89 746.656 1021.22 756.619 1020.96 L 821.397 1019.28 C 860.141 1018.28 908.79 1015.46 946.973 1017.4 C 949.011 1016.91 950.355 1017.3 950.776 1015.32 C 906.094 1006.14 861.007 988.523 816.161 978.683 C 811.479 977.655 805.027 975.71 802.711 971.469 C 803.573 968.183 802.716 969.548 805.585 967.381 C 816.264 965.928 922.996 990.204 940.973 994.747 L 957.062 998.34 C 953.09 995.959 950.339 994.584 946.138 992.616 C 921.218 975.683 895.976 959.229 870.427 943.262 C 863.894 939.128 829.572 919.814 828.661 913.955 L 830.191 912.731 C 840.544 912.885 936.336 964.151 956.413 973.063 C 959.294 974.778 959.541 975.205 962.917 975.61 L 962.963 974.447 L 959.598 971.82 C 936.759 949.101 912.417 926.335 890.295 902.88 C 862.121 873.007 833.418 842.5 805.764 812.123 C 804.315 810.53 804.668 809.341 805.18 807.636 L 806.971 807.165 C 830.984 823.065 863.424 855.809 884.486 876.916 C 912.322 904.811 938.616 930.665 967.698 957.504 L 969.674 956.069 C 960.702 938.926 911.183 844.325 912.363 833.69 L 913.876 833.279 C 915.86 834.539 917.913 836.081 919.107 838.141 C 943.565 880.319 970.459 922.609 993.75 965.282 C 987.629 918.207 975.606 870.113 967.62 823.213 C 966.839 818.627 965.041 814.303 967.57 810.183 L 969.53 810.076 C 972.834 813.568 1006.82 934.264 1011.05 950.179 C 1012.23 945.632 1012.05 943.151 1012.89 938.63 z" fill="rgb(217,123,63)" transform="translate(0,0)"></path>
<path d="M 1032.15 880.981 C 1033.16 890.486 1032.89 907.54 1032.91 917.461 C 1032.93 926.866 1033.51 942.808 1032.83 951.664 C 1033.04 954.207 1032.23 957.196 1034.73 957.912 L 1034.38 959.592 C 1034.29 960.053 1033.96 962.755 1032.84 962.418 C 1032.73 962.321 1032.62 962.223 1032.51 962.126 C 1032.12 947.226 1031.34 891.519 1032.15 880.981 z" fill="rgb(230,140,75)" transform="translate(0,0)"></path>
<path d="M 1033.15 1139.31 C 1032.29 1124.26 1033.32 1108.04 1033.2 1092.91 C 1033.18 1091.3 1034.7 1090.42 1035.15 1093.42 L 1035.44 1095.03 C 1032.46 1100.32 1034.69 1128.68 1033.15 1139.31 z" fill="rgb(250,182,168)" transform="translate(0,0)"></path>
<path d="M 1099.04 1042.51 C 1096.43 1042.26 1092.94 1042.18 1091.16 1040.47 C 1094.2 1039.68 1112.57 1040 1116.54 1040.13 C 1109.19 1041.54 1103.48 1039.93 1099.04 1042.51 z" fill="rgb(250,182,168)" transform="translate(0,0)"></path>
<path d="M 1011.05 950.179 C 1012.23 945.632 1012.05 943.151 1012.89 938.63 C 1013.03 941.328 1013.44 954.889 1012.54 956.406 L 1012.39 956.491 C 1010.72 955.479 1011.02 951.72 1011.05 950.179 z" fill="rgb(230,140,75)" transform="translate(0,0)"></path>
<path d="M 1077 1099.05 C 1075.73 1097.87 1070.57 1092.31 1070.9 1090.65 C 1072.81 1089.18 1076.89 1095.96 1077.82 1097.2 L 1077 1099.05 z" fill="rgb(230,140,75)" transform="translate(0,0)"></path>
<path d="M 1059.28 988.901 C 1061.32 985.34 1063.86 980.251 1066.42 977.298 L 1069.24 977.155 C 1066.17 981.267 1062.86 985.222 1059.28 988.901 z" fill="rgb(250,182,168)" transform="translate(0,0)"></path>
<path d="M 1012.37 1110.2 C 1014.95 1095.06 1015 1116 1014.89 1118.38 C 1014.43 1115.72 1014.91 1110.77 1012.37 1110.2 z" fill="rgb(230,140,75)" transform="translate(0,0)"></path>
<path d="M 950.776 1015.32 C 952.113 1015.49 956.025 1015.6 956.383 1017.32 C 955.483 1018.72 948.483 1017.74 946.973 1017.4 C 949.011 1016.91 950.355 1017.3 950.776 1015.32 z" fill="rgb(250,182,168)" transform="translate(0,0)"></path>
<path d="M 969.674 956.069 C 970.808 957.293 972.381 959.093 972.524 960.892 C 972.572 961.493 971.904 961.655 971.455 961.366 C 969.944 960.393 968.882 958.835 967.698 957.504 L 969.674 956.069 z" fill="rgb(250,182,168)" transform="translate(0,0)"></path>
<path d="M 974.4 1069.62 C 975.532 1068.71 978.991 1065.88 980.555 1066.55 C 981.059 1067.55 976.14 1070.85 975.349 1071.39 L 974.4 1069.62 z" fill="rgb(250,182,168)" transform="translate(0,0)"></path>
<path d="M 994.393 1099.99 C 994.608 1099.68 996.699 1096 997.571 1096.6 C 998.086 1097.66 996.723 1101.11 996.405 1102.28 L 994.393 1099.99 z" fill="rgb(250,182,168)" transform="translate(0,0)"></path>
<path d="M 1482.58 1003.38 C 1510.54 998.707 1541.95 1009.04 1559.78 1031.48 C 1560.25 1051.13 1560.34 1076.7 1557.88 1096.01 C 1555.53 1114.47 1549.6 1139.08 1544.59 1157.17 C 1526.06 1224.06 1502.11 1286.6 1457.85 1340.9 C 1448.68 1352.47 1437.94 1362.9 1428.33 1374.06 C 1416.59 1387.69 1407.25 1401.28 1391.71 1411 C 1378.1 1419.5 1367.99 1421.21 1352.41 1422.97 C 1327.59 1422.21 1308.89 1414.5 1293.19 1396.61 C 1252.52 1350.26 1276.32 1304.67 1319.56 1272.24 C 1328.68 1265.4 1343.83 1242.94 1350.48 1232.48 C 1393.17 1165.33 1407.61 1091.68 1409.99 1013.18 C 1426.11 1013.17 1463.7 1005.57 1482.58 1003.38 z" fill="rgb(217,123,63)" transform="translate(0,0)"></path>
<path d="M 1370.35 1221.42 C 1411.17 1245.34 1454.82 1250.1 1470.24 1302.57 C 1454.65 1327.21 1439.72 1344.74 1420.23 1365.92 C 1404.62 1382.88 1399.52 1395.6 1377.27 1405.62 C 1338.78 1420.64 1298.16 1402.62 1286.4 1361.98 C 1274.39 1320.48 1307.39 1300.75 1332.08 1275.72 C 1344.51 1263.11 1361.41 1237.11 1370.35 1221.42 z" fill="rgb(255,255,255)" transform="translate(0,0)"></path>
<path d="M 1412.17 1105.87 C 1444.82 1108.17 1496.21 1106.2 1522.64 1127.89 C 1525.29 1130.07 1532.98 1140.97 1535.95 1144.56 C 1532.35 1162.83 1523.6 1186.61 1517.41 1204.25 L 1513.21 1214.29 C 1511.55 1211.2 1509.72 1208.21 1507.73 1205.33 C 1484.46 1172.05 1437.56 1164.04 1399.92 1157.17 C 1404.3 1140.15 1408.38 1123.04 1412.17 1105.87 z" fill="rgb(255,255,255)" transform="translate(0,0)"></path>
<path d="M 1396.05 1166.81 C 1444.04 1183.06 1483.41 1174.47 1507.66 1230.33 C 1499.93 1249.93 1492.74 1266.26 1482.23 1284.54 L 1480.4 1287.31 C 1477.01 1287.58 1476.52 1283.11 1474.81 1280.17 C 1455.33 1246.65 1410.26 1227.7 1376.12 1212 C 1383.33 1197.19 1389.98 1182.12 1396.05 1166.81 z" fill="rgb(255,255,255)" transform="translate(0,0)"></path>
<path d="M 1475.28 1045.43 C 1487.19 1044.66 1504.55 1045.86 1516.15 1048.78 C 1534.4 1053.37 1538.37 1059.16 1547.24 1073.9 C 1546.69 1093.62 1543.62 1109.94 1539.36 1129.07 C 1530.86 1117.35 1521.35 1111.6 1508.29 1106.32 C 1484.74 1098.11 1440.99 1095.86 1414.66 1094.93 C 1417.77 1081.25 1420.11 1063.17 1421.24 1049.19 C 1437.05 1048.88 1459.07 1046.57 1475.28 1045.43 z" fill="rgb(255,255,255)" transform="translate(0,0)"></path>
<path d="M 1386.78 636.008 C 1396.44 640.6 1431.76 682.802 1440.08 692.663 C 1413.39 700.225 1399.95 706.22 1377.9 724.147 C 1358.75 739.714 1339.54 755.409 1320.49 771.113 L 1313.64 777.904 C 1303.12 765.565 1284.25 747.369 1271.88 737.2 C 1299.62 709.246 1325.9 678.252 1356 652.864 C 1364.59 645.621 1376.49 640.372 1386.78 636.008 z" fill="rgb(217,123,63)" transform="translate(0,0)"></path>
<path d="M 1504.75 847.438 C 1512.61 846.999 1519.3 847.839 1527.14 848.584 C 1533.89 865.953 1548.36 913.627 1550.7 931.887 C 1516.07 906.667 1471.47 922.715 1434.91 933.658 C 1424.2 936.525 1413.17 940.4 1402.6 943.903 C 1396.99 923.805 1391.97 909.66 1384.46 890.061 C 1395.53 884.524 1410.02 878.817 1421.63 873.888 C 1452.01 860.987 1471.22 850.218 1504.75 847.438 z" fill="rgb(217,123,63)" transform="translate(0,0)"></path>
<path d="M 1060.8 491.82 C 1087.68 494.314 1114.08 497.343 1140.5 503.183 C 1149.96 549.389 1129.1 593.556 1114.28 637.94 L 1108.63 652.741 C 1091.99 648.989 1075.3 646.72 1058.38 644.638 C 1064.38 609.604 1071.51 572.164 1072.86 536.614 C 1073.47 520.486 1068.47 505.861 1060.8 491.82 z" fill="rgb(217,123,63)" transform="translate(0,0)"></path>
<path d="M 1491.82 773.696 C 1497.32 777.618 1520.45 831.025 1524.34 840.399 C 1489.18 835.306 1463.2 847.244 1431.76 860.556 L 1385.24 880.491 L 1381.94 881.788 C 1379.27 879.822 1374.34 868.328 1372.52 864.533 C 1366.94 852.87 1360.54 843.032 1353.55 832.252 C 1383.64 814.336 1416.27 794.386 1448.37 780.305 C 1461.87 774.382 1477.21 773.712 1491.82 773.696 z" fill="rgb(217,123,63)" transform="translate(0,0)"></path>
<path d="M 1441.49 701.193 C 1443.93 700.953 1443.28 701.034 1445.78 701.522 C 1457.61 711.728 1480.73 751.128 1488.68 765.936 C 1441.16 765.642 1401.63 794.976 1360.52 818.545 L 1349.36 825.309 C 1339.59 809.31 1330.58 798.01 1318.97 783.444 C 1330.37 773.419 1342.96 763.299 1354.68 753.517 C 1381.78 730.907 1405.95 708.488 1441.49 701.193 z" fill="rgb(217,123,63)" transform="translate(0,0)"></path>
<path d="M 1503.19 926.47 C 1520.92 926.344 1551.03 931.287 1554.76 952.936 C 1558.31 973.453 1559 998.387 1559.3 1019.32 C 1531.33 995.1 1511.59 990.79 1475.09 996.141 C 1453.88 998.881 1431.37 1003.1 1410.09 1006.52 C 1409.51 986.946 1407.84 970.212 1403.42 951.035 C 1433.89 943.061 1473.24 928.004 1503.19 926.47 z" fill="rgb(217,123,63)" transform="translate(0,0)"></path>
<path d="M 1315.02 581.679 C 1326.57 585.417 1369.01 620.202 1380.36 629.437 C 1345.96 642.441 1304.23 690.998 1277.77 719.392 L 1266.63 732.055 C 1254.82 721.836 1237.93 709.339 1224.63 701.285 C 1252.2 666.388 1282.88 608.936 1315.02 581.679 z" fill="rgb(217,123,63)" transform="translate(0,0)"></path>
<path d="M 1149.13 505.912 C 1171.1 509.776 1204.41 521.412 1224.49 531.173 C 1218.91 567.336 1190.88 620.776 1173.92 655.184 L 1166.25 670.146 C 1149.32 663.942 1134.87 658.849 1117.48 654.183 C 1132.28 604.217 1157.19 557.747 1149.13 505.912 z" fill="rgb(217,123,63)" transform="translate(0,0)"></path>
<path d="M 888.615 510 C 900.217 510.377 912.955 541.145 915.933 551.031 C 925.991 584.422 934.317 619.124 935.291 654.083 C 917.696 658.975 900.32 664.625 883.213 671.017 L 881.037 659.227 L 880.861 657.729 C 877.817 633.11 869.541 613.177 860.677 590.428 C 850.817 565.126 843.905 549.247 822.193 532.479 C 844.811 523.79 865.557 517.163 888.615 510 z" fill="rgb(217,123,63)" transform="translate(0,0)"></path>
<path d="M 1232.08 534.716 C 1257.18 544.953 1285.02 561.681 1308.14 575.725 C 1281.9 599.738 1250.91 649.487 1230.2 680.499 C 1226.35 686.239 1222.87 692.176 1219.31 698.103 C 1205.32 689.043 1189.21 679.616 1173.74 673.611 C 1190.16 640.162 1228.61 568.821 1232.08 534.716 z" fill="rgb(217,123,63)" transform="translate(0,0)"></path>
<path d="M 673.25 625.846 C 700.238 629.804 714.488 642.377 731.628 662.766 C 752.292 687.346 763.948 706.575 773.191 737.24 C 757.873 751.55 745.402 764.265 730.989 779.386 C 730.182 766.28 727.795 756.259 723.451 744.018 C 722.22 740.612 719.796 735.062 718.166 731.881 C 708.58 713.344 692.059 699.344 672.199 692.93 C 645.884 684.669 624.631 692.244 601.253 704.31 C 622.24 675.544 646.39 649.224 673.25 625.846 z" fill="rgb(217,123,63)" transform="translate(0,0)"></path>
<path d="M 741.274 573.983 C 775.116 583.691 800.888 641.212 814.801 671.405 C 818.021 678.391 821.245 692.899 823.293 700.877 C 808.33 710.311 793.812 720.939 779.558 731.389 L 776.386 721.758 C 772.684 710.882 767.772 700.456 761.742 690.676 C 754.595 679.039 747.659 670.571 739.193 660.301 C 719.538 636.459 711.342 626.048 681.302 618.912 C 699.381 602.473 720.959 587.524 741.274 573.983 z" fill="rgb(217,123,63)" transform="translate(0,0)"></path>
<path d="M 964.717 496.387 C 965.693 496.216 968.748 495.67 969.381 496.096 C 1001.07 517.449 995.004 621.367 991.61 644.628 C 981.831 644.981 972.094 646.084 962.485 647.928 C 955.836 649.25 950.731 651.015 943.931 651.616 C 942.453 648.995 942.897 645.088 942.863 641.752 C 940.744 614.189 933.935 587.768 927.077 561.077 C 921.892 540.894 915.854 522.75 900.975 507.67 C 921.982 502.661 943.267 498.893 964.717 496.387 z" fill="rgb(217,123,63)" transform="translate(0,0)"></path>
<path d="M 813.052 536.023 C 841.338 556.824 845.715 574.107 858.415 606.162 C 868.03 630.43 871.177 648.812 875.872 674.236 C 857.266 681.333 847.078 687.352 829.632 697.077 C 829.076 693.028 827.693 688.275 826.654 684.249 C 819.381 655.814 794.067 609.839 773.983 586.863 C 767.987 580.003 758.001 573.329 750.408 568.415 C 770.606 555.676 791.512 546.139 813.052 536.023 z" fill="rgb(217,123,63)" transform="translate(0,0)"></path>
<path d="M 1038.75 491.455 L 1049.95 491.112 C 1067.49 516.925 1066.67 537.145 1062.37 567.476 C 1058.74 593.07 1054.93 618.533 1050.47 644.016 C 1035.9 642.724 1021.35 642.953 1006.75 643.081 C 1005.56 643.146 1003.04 643.393 1002.23 642.81 C 997.999 639.767 1002.85 622.973 1002.92 617.561 C 1003.18 612.997 1003.22 608.555 1003.04 603.958 C 1001.97 576.893 1001.55 547.811 993.45 521.839 C 990.6 512.703 985.506 502.84 981.447 494.28 C 1000.54 493.161 1019.64 492.219 1038.75 491.455 z" fill="rgb(217,123,63)" transform="translate(0,0)"></path>
<metadata><recraft-signature>{"signed_by": "recraft", "signature_b64": "bRhFNflHfMVb/9n3dkl0WNYNRTU0I+KabwU34LWN0/uTAit3RCM8FxTvwXoWodSyeEx1RgwjtFdq9vLg4ONEAA==", "signing_algo": "Ed25519", "generation_timestamp": 1772101048, "identifier": "66ddffed-e64d-4b6f-8a3c-38fb52d86a9f"}</recraft-signature></metadata></svg>